<?xml version="1.0" encoding="UTF-8" ?>
<!DOCTYPE svg PUBLIC "-//W3C//DTD SVG 1.1//EN" "http://www.w3.org/Graphics/SVG/1.1/DTD/svg11.dtd">
<svg width="1024pt" height="1024pt" viewBox="0 0 1024 1024" version="1.1" xmlns="http://www.w3.org/2000/svg">
<g id="#ffffffff">
<path fill="#ffffff" opacity="1.00" d=" M 557.20 218.45 C 561.32 217.44 565.50 216.74 569.64 215.83 C 569.54 216.68 569.33 218.38 569.22 219.23 C 566.23 243.86 560.39 268.05 553.22 291.76 C 561.03 295.12 568.56 299.11 575.83 303.52 C 576.51 303.95 577.20 304.39 577.90 304.83 C 581.39 307.18 584.84 309.62 588.21 312.17 C 588.62 312.51 589.44 313.20 589.85 313.54 C 590.85 314.47 591.88 315.38 592.96 316.23 C 594.14 317.20 595.33 318.18 596.48 319.19 C 599.04 321.51 601.47 323.97 603.84 326.49 C 604.85 327.59 605.83 328.73 606.81 329.87 C 608.10 331.45 609.45 332.98 610.76 334.55 C 611.41 335.34 612.04 336.16 612.66 336.99 C 613.20 337.75 613.79 338.47 614.44 339.16 C 614.77 339.59 615.44 340.45 615.77 340.87 C 620.19 347.05 624.49 353.32 628.19 359.97 C 630.01 363.65 631.83 367.33 633.75 370.96 C 641.98 389.27 647.05 409.06 648.12 429.13 C 648.18 430.50 648.41 431.87 648.56 433.25 C 648.78 435.76 648.92 438.27 649.17 440.78 C 649.25 441.46 649.39 442.83 649.46 443.51 C 650.78 454.85 655.68 465.58 662.71 474.52 C 662.96 474.84 663.47 475.47 663.72 475.79 C 666.21 478.85 668.99 481.70 672.08 484.18 C 672.43 484.47 673.12 485.04 673.47 485.33 C 679.93 490.68 687.35 494.79 695.16 497.83 C 698.88 499.54 703.05 501.01 705.66 504.35 C 707.90 507.47 707.10 511.62 705.51 514.85 C 705.10 515.57 704.66 516.29 704.20 516.99 C 703.65 517.75 703.14 518.54 702.68 519.36 C 702.48 519.64 702.09 520.19 701.90 520.47 C 696.80 526.63 689.80 531.45 681.78 532.69 C 671.64 534.05 661.57 531.54 651.72 529.45 C 630.20 524.79 609.57 516.84 588.19 511.67 C 586.08 511.11 583.96 510.67 581.84 510.24 C 562.58 505.76 542.60 505.56 523.43 500.60 C 509.40 496.96 495.72 491.70 483.18 484.40 C 481.43 483.34 479.68 482.27 477.96 481.19 C 476.27 480.04 474.60 478.88 472.95 477.71 C 472.12 477.09 471.31 476.47 470.54 475.82 C 467.24 472.92 464.11 469.82 461.25 466.49 C 460.99 466.14 460.48 465.44 460.22 465.09 C 459.71 464.30 459.15 463.54 458.56 462.83 C 457.83 461.86 457.16 460.85 456.52 459.84 C 448.29 446.83 443.01 431.53 444.18 415.99 C 442.93 417.85 441.76 419.76 440.56 421.65 C 438.80 424.31 437.49 427.21 436.25 430.13 C 430.40 442.16 428.09 455.85 429.87 469.12 C 431.73 484.21 437.50 498.73 446.21 511.17 C 447.03 512.43 447.91 513.67 448.73 514.96 C 449.23 515.74 449.81 516.48 450.47 517.16 C 450.82 517.57 451.51 518.40 451.86 518.81 C 453.40 520.80 455.08 522.68 456.78 524.54 C 459.79 527.97 462.99 531.25 466.47 534.20 C 467.99 535.54 469.53 536.86 471.13 538.13 C 471.47 538.40 472.15 538.96 472.49 539.24 C 477.60 543.48 483.14 547.18 488.83 550.61 C 489.57 551.05 490.31 551.49 491.07 551.94 C 492.47 552.79 493.90 553.61 495.38 554.37 C 496.94 555.20 498.54 555.97 500.15 556.75 C 524.04 568.62 550.80 574.03 577.40 573.96 C 577.97 573.96 579.11 573.96 579.68 573.97 C 578.75 574.54 577.81 575.09 576.86 575.61 C 558.36 585.28 540.50 596.35 524.48 609.79 C 524.13 610.06 523.43 610.60 523.08 610.87 C 518.07 614.64 513.08 618.45 508.04 622.19 C 506.84 623.04 505.63 623.88 504.41 624.72 C 503.24 625.47 502.11 626.27 501.01 627.13 C 499.95 627.91 498.89 628.68 497.84 629.46 C 495.40 631.22 492.94 632.96 490.43 634.61 C 484.29 638.65 478.17 642.71 472.10 646.85 C 454.71 658.02 436.36 667.85 416.92 674.99 C 399.35 681.46 380.75 685.07 362.05 685.95 C 343.97 686.63 325.73 683.52 308.98 676.65 C 307.95 676.22 306.95 675.74 305.95 675.27 C 302.55 673.56 299.17 671.79 295.91 669.82 C 293.65 668.34 291.41 666.83 289.20 665.28 C 288.47 664.69 287.71 664.14 286.94 663.64 C 286.26 663.18 285.61 662.71 284.97 662.22 C 283.62 661.08 282.30 659.91 280.98 658.75 C 277.98 655.95 275.00 653.10 272.17 650.13 C 266.30 643.68 261.25 636.53 256.79 629.06 C 256.36 628.33 255.95 627.59 255.56 626.86 C 242.40 602.21 235.57 574.42 233.87 546.63 C 233.80 545.33 233.65 544.06 233.54 542.78 C 232.79 533.29 232.87 523.74 233.52 514.25 C 233.66 512.86 233.84 511.49 233.91 510.11 C 235.79 482.75 243.14 455.94 254.25 430.93 C 254.67 429.95 255.19 429.02 255.62 428.05 C 257.22 424.71 258.88 421.40 260.57 418.10 C 261.29 416.72 262.01 415.33 262.74 413.96 C 263.97 411.67 265.26 409.42 266.59 407.19 C 269.32 402.77 272.07 398.36 274.82 393.95 C 276.36 391.67 277.95 389.43 279.54 387.19 C 280.31 386.12 281.07 385.05 281.84 383.99 C 283.61 381.63 285.40 379.27 287.20 376.93 C 287.95 375.98 288.71 375.05 289.51 374.15 C 290.44 373.13 291.35 372.08 292.20 370.99 C 292.85 370.15 293.53 369.33 294.23 368.52 C 296.50 365.95 298.87 363.47 301.22 360.97 C 303.16 359.06 305.06 357.12 306.91 355.13 C 310.73 351.42 314.64 347.81 318.54 344.19 C 319.30 343.50 320.07 342.82 320.85 342.16 C 322.58 340.72 324.29 339.26 325.98 337.77 C 326.61 337.23 327.25 336.71 327.91 336.20 C 330.44 334.23 332.97 332.25 335.49 330.27 C 335.85 330.00 336.58 329.46 336.94 329.19 C 338.98 327.77 340.98 326.31 343.02 324.89 C 344.34 323.98 345.69 323.11 347.05 322.25 C 348.42 321.38 349.77 320.50 351.12 319.61 C 352.38 318.79 353.65 317.97 354.94 317.18 C 359.23 314.62 363.56 312.11 367.96 309.75 C 371.66 307.97 375.35 306.19 378.96 304.24 C 403.75 292.75 430.15 283.93 457.46 281.37 C 458.77 281.10 459.46 279.78 460.38 278.93 C 461.36 277.82 462.25 276.64 463.22 275.53 C 469.09 269.19 475.14 263.00 481.54 257.20 C 483.02 255.90 484.54 254.66 486.07 253.42 C 486.80 252.84 487.50 252.22 488.17 251.57 C 488.58 251.21 489.41 250.51 489.83 250.15 C 497.14 244.47 504.87 239.32 512.97 234.82 C 514.60 233.94 516.24 233.07 517.90 232.23 C 528.41 226.99 539.48 222.97 550.79 219.85 C 551.41 219.74 552.63 219.50 553.25 219.39 C 553.65 219.30 554.47 219.13 554.88 219.05 C 555.46 218.90 556.62 218.60 557.20 218.45 M 562.97 399.76 L 562.75 401.13 C 562.93 401.43 563.30 402.02 563.49 402.32 C 564.30 406.66 566.07 410.85 568.73 414.39 C 568.79 414.59 568.90 414.98 568.95 415.17 L 569.44 415.42 C 570.89 417.43 572.58 419.31 574.78 420.53 C 575.40 421.48 576.38 422.16 577.51 422.40 C 583.48 426.20 590.53 427.60 597.10 430.00 C 602.48 431.75 607.59 434.18 612.81 436.36 C 615.40 438.34 618.45 439.64 621.27 441.27 C 620.50 438.85 619.62 436.47 618.78 434.08 L 618.44 433.71 C 617.22 430.11 615.59 426.63 613.41 423.52 C 611.81 419.78 608.79 416.87 606.15 413.86 C 604.88 412.80 603.73 411.02 601.96 410.99 C 601.81 409.44 600.94 408.70 599.36 408.77 C 597.92 406.56 594.92 405.46 592.45 404.60 C 583.32 400.17 572.95 399.60 562.97 399.76 Z" />
<path fill="#ffffff" opacity="1.00" d=" M 553.93 625.18 C 582.55 607.39 615.32 595.30 649.20 593.94 C 654.27 593.78 659.36 593.75 664.42 593.27 C 650.72 609.84 638.26 627.39 625.88 644.96 C 637.40 644.76 648.67 647.40 660.01 649.01 C 670.82 650.79 681.78 652.23 692.22 655.69 C 682.16 667.15 672.16 678.66 661.82 689.87 C 652.99 699.78 644.42 709.95 636.69 720.75 C 649.91 723.10 662.83 726.81 675.77 730.32 C 681.25 731.74 686.39 734.34 691.99 735.29 C 698.94 730.99 703.00 723.19 710.35 719.33 C 703.45 725.83 696.86 732.66 689.96 739.17 C 688.28 740.69 686.58 742.20 684.92 743.74 C 683.25 745.20 681.59 746.68 679.97 748.18 C 678.98 749.04 678.00 749.92 677.03 750.81 C 675.34 752.26 673.66 753.74 672.01 755.24 C 671.37 755.79 670.74 756.34 670.10 756.88 C 668.53 758.13 666.99 759.41 665.45 760.69 C 665.08 760.98 664.35 761.55 663.99 761.84 C 662.88 762.65 661.84 763.53 660.84 764.46 C 660.42 764.80 659.58 765.50 659.16 765.84 C 653.95 769.82 648.83 773.92 643.42 777.63 C 640.53 779.53 637.62 781.40 634.78 783.38 C 609.13 799.84 580.13 811.28 550.00 816.05 C 505.43 823.37 459.03 816.13 417.96 797.67 C 416.48 796.98 415.02 796.26 413.54 795.59 C 406.52 792.27 399.62 788.68 392.92 784.76 C 389.15 782.35 385.41 779.91 381.59 777.60 C 379.66 776.37 377.78 775.09 375.91 773.79 C 374.34 772.64 372.77 771.50 371.21 770.35 C 370.47 769.73 369.70 769.17 368.91 768.65 C 368.48 768.33 367.61 767.69 367.18 767.37 C 366.45 766.73 365.69 766.15 364.91 765.63 C 364.48 765.31 363.61 764.67 363.18 764.35 C 362.11 763.46 361.06 762.56 359.95 761.75 C 359.51 761.40 358.62 760.70 358.18 760.35 C 357.16 759.45 356.15 758.54 355.10 757.69 C 353.92 756.69 352.74 755.72 351.57 754.73 C 348.97 752.48 346.49 750.10 343.99 747.75 C 341.11 744.80 338.20 741.88 335.21 739.04 C 333.19 736.85 331.18 734.66 329.18 732.47 C 328.19 731.35 327.20 730.24 326.22 729.12 C 324.92 727.55 323.58 726.02 322.31 724.45 C 319.59 720.93 316.83 717.46 314.14 713.93 C 313.44 712.94 312.72 711.97 312.00 711.01 C 310.52 708.94 309.06 706.85 307.56 704.80 C 305.99 702.54 304.44 700.28 302.89 698.02 C 302.14 696.87 301.43 695.69 300.76 694.50 C 301.90 694.86 303.03 695.28 304.15 695.75 C 314.52 700.53 325.03 705.17 336.16 707.90 C 356.35 712.87 377.59 712.60 397.96 708.92 C 420.87 704.65 442.71 695.75 463.13 684.68 C 463.96 684.23 464.79 683.79 465.62 683.35 C 467.09 682.59 468.52 681.77 469.93 680.92 C 470.68 680.46 471.43 680.01 472.19 679.57 C 477.70 676.24 483.17 672.84 488.57 669.32 C 489.45 668.75 490.33 668.18 491.21 667.61 C 495.36 664.90 499.46 662.13 503.59 659.40 C 507.18 657.14 510.65 654.68 514.12 652.24 C 514.58 651.92 515.48 651.28 515.94 650.96 C 518.63 649.08 521.32 647.19 523.94 645.21 C 525.80 643.89 527.69 642.60 529.59 641.31 C 531.06 640.33 532.51 639.30 533.95 638.26 C 535.61 637.10 537.27 635.94 538.95 634.80 C 544.00 631.68 548.98 628.46 553.93 625.18 Z" />
</g>
<g id="#94d1faff">
<path fill="#94d1fa" opacity="1.00" d=" M 423.36 136.24 C 453.26 128.66 484.18 125.33 515.00 125.94 C 531.28 125.51 547.52 127.17 563.63 129.36 C 584.14 132.44 604.52 136.62 624.42 142.52 C 661.73 154.35 697.18 172.13 728.84 195.16 C 743.88 205.89 757.78 218.11 771.24 230.74 C 795.24 254.67 816.01 281.83 832.81 311.28 C 848.66 338.95 860.28 368.94 868.31 399.77 C 873.60 420.76 876.60 442.27 878.37 463.82 C 879.46 474.51 878.95 485.28 879.02 496.00 C 878.08 510.77 877.64 525.60 875.39 540.26 C 871.62 568.40 863.48 595.76 853.24 622.17 C 847.29 637.58 839.79 652.34 831.85 666.81 C 829.32 671.22 827.14 675.92 823.66 679.70 C 820.50 668.39 816.51 657.31 811.49 646.70 C 810.56 644.38 809.49 642.11 808.30 639.92 L 807.89 639.20 C 807.42 638.40 806.95 637.62 806.48 636.86 C 801.78 628.67 796.62 620.68 790.28 613.66 C 790.03 613.37 789.54 612.78 789.29 612.49 C 785.54 607.69 781.14 603.44 776.47 599.54 C 775.77 598.89 775.07 598.26 774.39 597.63 C 773.23 596.50 772.01 595.46 770.68 594.58 C 769.31 593.61 767.93 592.66 766.52 591.78 C 764.40 590.29 762.23 588.91 760.01 587.60 C 759.40 587.17 758.80 586.75 758.20 586.34 C 756.66 585.23 754.99 584.33 753.30 583.50 C 751.37 582.49 749.44 581.49 747.44 580.65 C 731.10 572.77 713.39 567.95 695.42 565.72 C 691.04 564.98 686.61 564.92 682.19 565.00 C 683.21 564.44 684.25 563.90 685.30 563.40 C 694.94 560.15 703.95 555.03 711.46 548.15 C 713.57 546.38 715.46 544.37 717.36 542.37 C 718.48 541.24 719.55 540.04 720.37 538.68 C 720.58 538.35 721.00 537.69 721.21 537.36 C 722.76 535.33 724.21 533.23 725.52 531.04 C 726.26 529.88 726.95 528.68 727.55 527.43 C 733.43 516.84 735.70 504.34 733.65 492.39 C 733.27 490.69 732.55 489.11 731.72 487.61 C 730.58 485.64 728.47 484.55 726.49 483.62 C 717.81 479.91 709.18 476.04 701.35 470.70 C 701.07 470.42 700.51 469.85 700.23 469.57 C 699.46 468.71 698.58 468.01 697.59 467.47 C 694.39 464.65 691.38 461.61 688.31 458.65 C 686.58 456.28 684.86 453.91 683.14 451.55 C 682.95 451.07 682.56 450.13 682.36 449.66 C 681.89 448.37 681.33 447.13 680.76 445.91 C 680.26 444.59 679.84 443.25 679.47 441.90 C 679.36 441.50 679.13 440.70 679.02 440.30 C 678.86 439.63 678.54 438.28 678.38 437.60 C 677.07 418.48 674.84 399.26 669.08 380.90 C 665.14 368.34 660.15 356.02 653.42 344.68 C 653.08 343.97 652.75 343.26 652.42 342.56 C 652.01 341.56 651.48 340.64 650.81 339.81 C 650.34 339.18 649.89 338.55 649.44 337.92 C 647.56 334.65 645.48 331.51 643.27 328.46 C 642.38 327.10 641.42 325.80 640.39 324.55 C 638.11 321.51 635.81 318.49 633.24 315.69 C 633.00 315.40 632.51 314.84 632.27 314.55 C 630.07 311.72 627.63 309.10 625.13 306.55 C 623.36 304.54 621.47 302.64 619.45 300.88 C 617.51 299.02 615.55 297.18 613.50 295.45 C 612.45 294.53 611.40 293.61 610.37 292.68 C 609.22 291.56 608.00 290.50 606.66 289.64 C 606.33 289.42 605.69 288.98 605.36 288.76 C 599.58 284.02 593.40 279.79 587.08 275.81 C 594.50 248.19 598.82 219.78 600.52 191.25 C 600.67 189.74 600.84 188.24 600.96 186.73 C 601.00 186.04 601.08 184.65 601.11 183.95 C 598.65 183.98 596.19 183.98 593.73 184.02 C 592.07 184.04 590.42 184.27 588.78 184.46 C 561.63 186.33 534.42 191.79 509.74 203.58 C 509.00 203.90 508.27 204.22 507.55 204.57 C 504.88 205.78 502.26 207.12 499.71 208.55 C 499.08 208.87 498.45 209.20 497.84 209.55 C 492.56 212.29 487.43 215.35 482.53 218.73 C 481.61 219.31 480.72 219.93 479.86 220.58 C 475.65 223.44 471.54 226.45 467.73 229.82 C 467.48 230.02 466.99 230.42 466.75 230.63 C 463.85 232.85 461.15 235.32 458.52 237.86 C 454.35 241.46 450.41 245.35 446.96 249.65 C 445.00 251.61 443.04 253.99 440.05 254.16 C 416.31 258.94 392.66 265.05 370.74 275.57 C 369.32 276.17 367.94 276.84 366.58 277.57 C 362.56 279.42 358.59 281.37 354.75 283.57 C 354.11 283.90 353.49 284.24 352.87 284.60 C 345.83 288.18 339.10 292.35 332.56 296.77 C 331.64 297.34 330.75 297.94 329.88 298.57 C 326.40 300.85 322.97 303.22 319.70 305.79 C 319.33 306.00 318.60 306.42 318.23 306.62 C 317.22 307.17 316.40 307.92 315.77 308.89 C 315.56 309.05 315.15 309.35 314.95 309.50 C 313.20 310.23 311.70 311.39 310.57 312.89 C 310.28 313.07 309.70 313.44 309.41 313.62 C 308.00 314.43 306.76 315.51 305.64 316.69 C 304.98 317.33 304.33 317.96 303.68 318.61 C 301.90 319.99 300.19 321.45 298.52 322.96 C 297.13 324.09 295.79 325.30 294.52 326.57 C 289.25 331.24 284.31 336.28 279.64 341.55 C 278.70 342.50 277.79 343.48 276.92 344.50 C 275.08 346.43 273.35 348.45 271.74 350.57 C 271.50 350.86 271.02 351.42 270.78 351.70 C 269.26 353.34 267.88 355.10 266.56 356.91 C 266.33 357.14 265.85 357.61 265.61 357.84 C 264.78 358.50 264.12 359.29 263.63 360.23 C 263.42 360.59 263.01 361.30 262.81 361.66 C 260.99 363.89 259.25 366.18 257.58 368.52 C 256.61 369.82 255.67 371.14 254.80 372.51 C 251.55 377.19 248.45 381.96 245.62 386.90 C 245.16 387.54 244.70 388.18 244.24 388.82 C 243.56 389.66 243.02 390.57 242.62 391.58 C 242.29 392.27 241.97 392.97 241.65 393.68 C 240.17 396.04 238.77 398.45 237.46 400.92 C 235.07 404.87 233.05 409.02 231.08 413.20 L 230.73 413.96 C 230.35 414.83 229.98 415.70 229.62 416.58 C 223.12 430.24 217.89 444.47 213.60 458.97 C 213.13 460.52 212.73 462.10 212.37 463.70 C 208.31 478.80 205.69 494.28 204.53 509.87 C 204.38 511.42 204.20 512.97 204.13 514.54 C 203.85 524.16 203.91 533.81 204.13 543.44 C 204.19 545.02 204.37 546.59 204.52 548.17 C 207.31 587.26 218.43 625.66 236.75 660.30 C 244.42 674.85 252.86 689.07 262.75 702.25 C 262.98 702.56 263.43 703.20 263.66 703.52 C 266.12 707.30 268.83 710.91 271.74 714.35 C 271.97 714.71 272.42 715.42 272.64 715.78 C 273.18 716.69 273.84 717.51 274.63 718.25 C 275.28 718.95 275.92 719.68 276.55 720.42 C 277.90 722.10 279.30 723.74 280.75 725.33 C 280.99 725.61 281.45 726.16 281.69 726.44 C 283.32 728.54 285.06 730.56 286.88 732.52 C 287.73 733.53 288.61 734.51 289.54 735.47 C 296.42 743.23 303.82 750.54 311.52 757.48 C 312.79 758.74 314.12 759.93 315.50 761.08 C 317.15 762.59 318.81 764.09 320.58 765.49 C 321.23 766.02 321.89 766.55 322.55 767.09 C 324.22 768.60 325.95 770.04 327.77 771.37 C 328.02 771.57 328.50 771.97 328.75 772.17 C 331.22 774.41 333.88 776.45 336.68 778.30 C 336.95 778.58 337.50 779.15 337.77 779.44 C 338.44 780.24 339.25 780.88 340.20 781.35 C 340.57 781.55 341.32 781.94 341.69 782.14 C 343.60 783.63 345.57 785.06 347.57 786.45 C 348.56 787.14 349.56 787.84 350.58 788.51 C 360.31 795.37 370.43 801.66 380.85 807.41 C 381.46 807.76 382.08 808.10 382.72 808.45 C 417.65 828.37 456.53 840.48 495.99 847.47 C 496.37 847.56 497.12 847.72 497.49 847.80 C 491.80 849.50 485.86 848.24 480.05 848.16 C 442.65 845.89 405.39 838.07 370.93 823.14 C 335.27 808.62 302.12 788.13 272.75 763.27 C 233.12 728.94 199.98 686.71 178.07 638.95 C 170.45 622.13 163.48 604.95 158.94 587.02 C 142.43 530.67 140.50 470.26 152.90 412.90 C 156.32 395.80 162.07 379.29 167.86 362.87 C 172.21 351.44 176.63 340.01 182.07 329.04 C 187.09 318.94 191.98 308.73 198.26 299.33 C 214.08 274.17 232.22 250.32 253.67 229.68 C 260.83 222.12 268.96 215.59 276.97 208.97 C 304.02 186.64 334.13 167.83 366.67 154.63 C 385.03 146.97 404.02 140.86 423.36 136.24 Z" />
<path fill="#94d1fa" opacity="1.00" d=" M 664.42 593.27 C 699.10 592.60 734.91 602.06 762.16 624.16 C 762.95 624.79 763.73 625.45 764.50 626.14 C 768.42 629.78 772.22 633.55 775.90 637.44 C 776.42 638.01 776.93 638.59 777.44 639.20 C 783.84 646.55 788.76 654.97 794.32 662.93 C 793.75 663.14 792.61 663.56 792.04 663.77 C 788.01 665.08 784.02 666.54 780.18 668.35 C 779.13 668.82 778.10 669.30 777.08 669.80 C 774.70 670.88 772.36 672.03 770.09 673.32 C 769.35 673.71 768.61 674.11 767.89 674.52 C 763.26 677.01 758.80 679.81 754.44 682.76 C 753.57 683.32 752.71 683.91 751.87 684.51 C 745.86 688.64 740.05 693.07 734.52 697.82 C 734.18 698.11 733.51 698.67 733.17 698.95 C 731.24 700.48 729.40 702.11 727.58 703.77 C 727.36 703.96 726.93 704.34 726.71 704.54 C 723.53 707.18 720.50 709.99 717.49 712.82 C 715.66 714.45 713.94 716.21 712.15 717.88 C 711.70 718.24 710.80 718.97 710.35 719.33 C 703.00 723.19 698.94 730.99 691.99 735.29 C 686.39 734.34 681.25 731.74 675.77 730.32 C 662.83 726.81 649.91 723.10 636.69 720.75 C 644.42 709.95 652.99 699.78 661.82 689.87 C 672.16 678.66 682.16 667.15 692.22 655.69 C 681.78 652.23 670.82 650.79 660.01 649.01 C 648.67 647.40 637.40 644.76 625.88 644.96 C 638.26 627.39 650.72 609.84 664.42 593.27 Z" />
</g>
<g id="#34526dff">
<path fill="#34526d" opacity="1.00" d=" M 588.78 184.46 C 590.42 184.27 592.07 184.04 593.73 184.02 C 596.24 184.62 598.64 185.60 600.96 186.73 C 600.84 188.24 600.67 189.74 600.52 191.25 C 600.20 190.07 599.86 188.89 599.52 187.72 C 598.04 213.60 594.77 239.45 588.63 264.65 C 587.80 268.51 586.21 272.36 586.56 276.37 C 592.40 281.05 598.60 285.49 605.36 288.76 C 605.69 288.98 606.33 289.42 606.66 289.64 C 605.69 291.96 608.36 293.59 610.37 292.68 C 611.40 293.61 612.45 294.53 613.50 295.45 C 614.44 298.21 616.94 299.71 619.45 300.88 C 621.47 302.64 623.36 304.54 625.13 306.55 C 626.57 309.96 628.95 312.85 632.27 314.55 C 632.51 314.84 633.00 315.40 633.24 315.69 C 634.66 319.32 636.97 322.57 640.39 324.55 C 641.42 325.80 642.38 327.10 643.27 328.46 C 644.26 332.21 646.34 335.55 649.44 337.92 C 649.89 338.55 650.34 339.18 650.81 339.81 C 649.00 340.84 650.66 343.47 652.42 342.56 C 652.75 343.26 653.08 343.97 653.42 344.68 C 655.06 351.13 658.83 356.72 661.23 362.88 C 667.77 378.12 672.09 394.25 674.41 410.66 C 675.99 420.15 676.22 429.79 677.53 439.31 C 677.74 438.88 678.17 438.03 678.38 437.60 C 678.54 438.28 678.86 439.63 679.02 440.30 C 676.59 439.98 677.75 443.85 679.47 441.90 C 679.84 443.25 680.26 444.59 680.76 445.91 C 678.91 447.19 680.19 450.03 682.36 449.66 C 682.56 450.13 682.95 451.07 683.14 451.55 C 683.89 454.53 685.58 457.13 688.31 458.65 C 691.38 461.61 694.39 464.65 697.59 467.47 C 696.93 469.11 698.77 471.24 700.23 469.57 C 700.51 469.85 701.07 470.42 701.35 470.70 C 705.01 475.33 710.61 477.62 715.73 480.22 C 719.10 481.94 722.77 482.94 726.49 483.62 C 728.47 484.55 730.58 485.64 731.72 487.61 C 732.86 494.55 733.55 501.65 732.66 508.67 C 731.88 515.16 728.71 521.03 727.55 527.43 C 726.95 528.68 726.26 529.88 725.52 531.04 C 723.58 532.77 722.12 534.92 721.21 537.36 C 721.00 537.69 720.58 538.35 720.37 538.68 C 718.06 537.71 716.45 540.36 717.36 542.37 C 715.46 544.37 713.57 546.38 711.46 548.15 C 707.46 550.11 703.81 552.66 700.13 555.14 C 694.92 558.61 689.05 560.94 683.05 562.63 C 683.61 562.82 684.74 563.21 685.30 563.40 C 684.25 563.90 683.21 564.44 682.19 565.00 C 689.84 566.83 697.76 566.96 705.47 568.49 C 716.33 570.56 727.14 573.28 737.33 577.63 C 740.57 579.02 743.98 579.97 747.44 580.65 C 749.44 581.49 751.37 582.49 753.30 583.50 C 753.35 586.00 755.99 587.73 758.20 586.34 C 758.80 586.75 759.40 587.17 760.01 587.60 C 761.74 589.60 763.98 591.00 766.52 591.78 C 767.93 592.66 769.31 593.61 770.68 594.58 C 769.68 596.89 772.37 598.53 774.39 597.63 C 775.07 598.26 775.77 598.89 776.47 599.54 C 779.81 604.67 784.18 609.10 789.29 612.49 C 789.54 612.78 790.03 613.37 790.28 613.66 C 791.67 616.51 793.31 619.24 795.23 621.78 C 799.06 626.75 801.90 632.48 806.48 636.86 C 806.95 637.62 807.42 638.40 807.89 639.20 C 805.41 638.88 807.38 642.25 808.30 639.92 C 809.49 642.11 810.56 644.38 811.49 646.70 C 812.26 652.74 815.26 658.11 817.30 663.77 C 819.36 669.23 821.15 674.82 822.24 680.57 C 815.84 682.69 809.11 684.16 803.22 687.54 C 803.04 687.80 802.68 688.33 802.51 688.59 L 802.19 689.08 C 801.60 689.16 801.03 689.24 800.46 689.33 C 796.95 689.46 793.72 690.94 791.33 693.50 C 790.13 694.53 788.66 695.39 787.05 695.36 C 785.04 695.17 782.64 695.72 782.16 698.00 C 782.05 698.26 781.83 698.79 781.72 699.05 C 781.40 699.13 780.76 699.28 780.44 699.35 C 777.06 699.73 774.23 701.69 772.26 704.39 C 771.48 705.27 770.51 705.97 769.40 706.35 C 764.98 707.76 760.67 710.22 758.40 714.43 L 758.13 714.84 C 757.94 714.93 757.56 715.09 757.37 715.17 C 755.15 715.87 753.21 717.20 752.30 719.41 L 752.05 719.84 C 751.87 719.92 751.51 720.09 751.33 720.17 C 748.18 721.22 745.80 723.57 744.28 726.46 C 742.99 728.31 741.25 729.84 739.38 731.09 C 734.01 733.96 729.48 738.26 726.34 743.47 C 724.65 745.61 722.66 747.57 720.40 749.09 C 716.58 750.89 713.34 753.72 711.33 757.46 C 710.61 758.56 709.56 759.40 708.42 760.02 C 705.87 761.18 703.40 762.75 702.31 765.46 L 702.06 765.90 C 701.89 765.98 701.54 766.13 701.36 766.21 C 698.73 767.12 696.41 768.79 695.36 771.44 L 695.11 771.88 C 694.93 771.96 694.58 772.11 694.40 772.19 C 692.12 772.90 690.11 774.26 689.23 776.56 L 688.86 777.20 C 688.60 777.16 688.08 777.09 687.82 777.05 C 686.46 776.44 684.73 777.86 685.71 779.25 L 685.97 779.91 C 685.12 780.29 684.27 780.68 683.44 781.06 C 680.49 782.03 677.93 783.85 676.28 786.50 C 675.27 787.78 673.89 788.74 672.40 789.37 C 666.56 791.38 662.07 795.76 656.85 798.87 C 652.68 801.37 648.45 803.88 645.10 807.46 C 644.61 807.90 644.05 808.22 643.41 808.41 C 636.56 810.26 630.86 814.69 624.46 817.58 C 590.72 834.68 553.37 844.09 515.69 846.48 C 516.84 846.81 518.00 847.15 519.17 847.47 C 517.96 847.67 516.74 848.02 515.51 847.89 C 509.97 846.67 504.25 846.69 498.71 847.86 C 498.40 847.85 497.80 847.82 497.49 847.80 C 497.12 847.72 496.37 847.56 495.99 847.47 C 496.53 847.19 497.61 846.61 498.15 846.32 C 462.73 840.79 427.99 830.25 395.90 814.19 C 391.67 811.91 387.43 809.55 382.72 808.45 C 382.08 808.10 381.46 807.76 380.85 807.41 C 375.72 802.13 368.74 799.41 362.78 795.28 C 358.94 792.64 355.09 789.89 350.58 788.51 C 349.56 787.84 348.56 787.14 347.57 786.45 C 346.44 784.06 344.04 782.97 341.69 782.14 C 341.32 781.94 340.57 781.55 340.20 781.35 C 341.61 779.75 339.06 777.99 337.77 779.44 C 337.50 779.15 336.95 778.58 336.68 778.30 C 334.82 775.36 331.96 773.38 328.75 772.17 C 328.50 771.97 328.02 771.57 327.77 771.37 C 326.29 769.65 324.53 768.21 322.55 767.09 C 321.89 766.55 321.23 766.02 320.58 765.49 C 319.61 763.29 317.59 762.04 315.50 761.08 C 314.12 759.93 312.79 758.74 311.52 757.48 C 308.25 751.60 302.48 747.87 298.16 742.88 C 295.65 740.01 292.85 737.38 289.54 735.47 C 288.61 734.51 287.73 733.53 286.88 732.52 C 285.81 729.97 284.15 727.75 281.69 726.44 C 281.45 726.16 280.99 725.61 280.75 725.33 C 279.83 723.31 278.60 721.42 276.55 720.42 C 275.92 719.68 275.28 718.95 274.63 718.25 C 276.04 716.92 274.24 714.35 272.64 715.78 C 272.42 715.42 271.97 714.71 271.74 714.35 C 270.11 710.05 267.51 706.12 263.66 703.52 C 263.43 703.20 262.98 702.56 262.75 702.25 C 260.23 695.58 255.45 690.18 251.83 684.13 C 231.65 652.39 216.70 617.10 209.92 580.02 C 207.49 568.01 206.60 555.79 205.16 543.65 C 204.91 545.15 204.70 546.65 204.52 548.17 C 204.37 546.59 204.19 545.02 204.13 543.44 C 205.45 533.90 205.60 524.07 204.13 514.54 C 204.20 512.97 204.38 511.42 204.53 509.87 C 204.76 511.38 205.04 512.88 205.35 514.39 C 206.53 500.89 207.87 487.34 211.17 474.16 C 212.08 470.75 212.49 467.22 212.37 463.70 C 212.73 462.10 213.13 460.52 213.60 458.97 C 213.89 459.15 214.46 459.52 214.75 459.71 C 217.94 448.41 221.74 437.27 226.53 426.55 C 227.99 423.37 228.95 420.00 229.62 416.58 C 229.98 415.70 230.35 414.83 230.73 413.96 C 231.81 416.22 233.51 412.72 231.08 413.20 C 233.05 409.02 235.07 404.87 237.46 400.92 C 239.60 398.98 241.12 396.53 241.65 393.68 C 241.97 392.97 242.29 392.27 242.62 391.58 C 244.38 392.48 246.04 389.86 244.24 388.82 C 244.70 388.18 245.16 387.54 245.62 386.90 C 249.87 382.98 252.99 378.00 254.80 372.51 C 255.67 371.14 256.61 369.82 257.58 368.52 C 260.39 367.22 261.78 364.42 262.81 361.66 C 263.01 361.30 263.42 360.59 263.63 360.23 C 265.18 361.66 267.02 359.16 265.61 357.84 C 265.85 357.61 266.33 357.14 266.56 356.91 C 268.27 355.43 269.64 353.63 270.78 351.70 C 271.02 351.42 271.50 350.86 271.74 350.57 C 274.13 349.18 275.81 347.00 276.92 344.50 C 277.79 343.48 278.70 342.50 279.64 341.55 C 285.55 337.66 290.70 332.53 294.52 326.57 C 295.79 325.30 297.13 324.09 298.52 322.96 C 300.59 321.96 302.41 320.54 303.68 318.61 C 304.33 317.96 304.98 317.33 305.64 316.69 C 307.66 317.53 310.23 315.92 309.41 313.62 C 309.70 313.44 310.28 313.07 310.57 312.89 C 312.80 313.27 314.78 311.78 314.95 309.50 C 315.15 309.35 315.56 309.05 315.77 308.89 C 317.22 309.58 319.84 308.24 318.23 306.62 C 318.60 306.42 319.33 306.00 319.70 305.79 C 323.77 304.47 327.33 302.01 329.88 298.57 C 330.75 297.94 331.64 297.34 332.56 296.77 C 339.93 293.90 346.90 289.80 352.87 284.60 C 353.49 284.24 354.11 283.90 354.75 283.57 C 359.19 282.76 363.57 281.08 366.58 277.57 C 367.94 276.84 369.32 276.17 370.74 275.57 C 374.91 274.93 378.87 273.46 382.69 271.71 C 401.36 263.64 421.35 259.52 441.10 255.08 C 444.16 254.80 445.68 252.09 446.96 249.65 C 450.41 245.35 454.35 241.46 458.52 237.86 C 461.98 236.37 464.85 233.89 466.75 230.63 C 466.99 230.42 467.48 230.02 467.73 229.82 C 472.52 227.86 476.72 224.71 479.86 220.58 C 480.72 219.93 481.61 219.31 482.53 218.73 C 488.26 216.87 493.55 213.78 497.84 209.55 C 498.45 209.20 499.08 208.87 499.71 208.55 C 502.69 208.09 505.85 207.31 507.55 204.57 C 508.27 204.22 509.00 203.90 509.74 203.58 C 517.04 202.42 523.48 198.54 530.54 196.53 C 550.45 189.77 571.41 186.80 592.32 185.46 C 591.14 185.10 589.96 184.77 588.78 184.46 M 556.17 217.37 L 556.41 217.90 L 557.20 218.45 C 556.62 218.60 555.46 218.90 554.88 219.05 C 555.50 216.65 550.88 218.05 553.25 219.39 C 552.63 219.50 551.41 219.74 550.79 219.85 L 551.76 219.46 C 549.53 219.24 547.30 219.51 545.18 220.18 C 538.24 222.31 531.41 224.81 524.75 227.70 C 521.92 228.95 518.70 229.91 516.93 232.66 L 517.90 232.23 C 516.24 233.07 514.60 233.94 512.97 234.82 L 513.80 234.32 C 508.35 235.03 504.09 238.82 499.58 241.61 C 495.87 244.38 491.29 246.44 489.05 250.72 L 489.83 250.15 C 489.41 250.51 488.58 251.21 488.17 251.57 C 487.16 249.64 483.90 252.50 486.07 253.42 C 484.54 254.66 483.02 255.90 481.54 257.20 C 477.10 258.35 474.49 262.37 471.33 265.34 C 468.42 268.55 464.42 271.13 463.22 275.53 C 462.25 276.64 461.36 277.82 460.38 278.93 L 459.92 278.33 C 453.90 281.41 446.93 281.01 440.42 282.43 C 422.13 286.07 404.29 291.82 387.17 299.20 C 383.93 300.67 380.20 301.67 377.98 304.67 L 378.96 304.24 C 375.35 306.19 371.66 307.97 367.96 309.75 L 368.81 309.26 C 363.28 310.36 357.52 313.09 354.06 317.68 L 354.94 317.18 C 353.65 317.97 352.38 318.79 351.12 319.61 C 349.67 317.89 344.86 320.75 347.05 322.25 C 345.69 323.11 344.34 323.98 343.02 324.89 L 343.80 324.31 C 340.47 324.66 337.50 326.64 336.13 329.73 L 336.94 329.19 C 336.58 329.46 335.85 330.00 335.49 330.27 C 331.86 331.01 328.59 333.31 327.12 336.78 L 327.91 336.20 C 327.25 336.71 326.61 337.23 325.98 337.77 L 326.67 337.15 C 323.57 337.68 321.22 339.86 320.12 342.76 L 320.85 342.16 C 320.07 342.82 319.30 343.50 318.54 344.19 C 313.26 346.31 308.94 350.84 306.23 355.77 L 306.91 355.13 C 305.06 357.12 303.16 359.06 301.22 360.97 L 301.87 360.26 C 298.19 361.62 295.24 364.70 294.23 368.52 C 293.53 369.33 292.85 370.15 292.20 370.99 L 292.05 370.51 C 290.20 369.52 288.16 372.74 289.51 374.15 C 288.71 375.05 287.95 375.98 287.20 376.93 L 287.78 376.14 C 284.26 377.66 281.85 381.01 281.25 384.76 L 281.84 383.99 C 281.07 385.05 280.31 386.12 279.54 387.19 C 276.39 388.42 274.53 391.42 274.27 394.73 L 274.82 393.95 C 272.07 398.36 269.32 402.77 266.59 407.19 C 263.65 408.58 262.25 411.65 262.26 414.80 L 262.74 413.96 C 262.01 415.33 261.29 416.72 260.57 418.10 C 257.25 420.31 255.45 424.35 255.33 428.24 L 255.62 428.05 C 255.19 429.02 254.67 429.95 254.25 430.93 L 254.70 429.94 C 251.90 432.04 250.94 435.54 249.68 438.63 C 240.42 461.42 234.25 485.62 232.78 510.21 L 233.91 510.11 C 233.84 511.49 233.66 512.86 233.52 514.25 C 233.32 513.00 233.00 511.78 232.54 510.60 C 231.68 516.69 232.09 522.86 232.00 529.00 C 232.07 534.79 231.72 540.62 232.54 546.38 C 232.91 545.19 233.24 543.98 233.54 542.78 C 233.65 544.06 233.80 545.33 233.87 546.63 C 232.08 550.93 233.28 555.63 233.78 560.08 C 236.51 581.82 242.43 603.25 252.10 622.95 C 252.84 624.57 254.15 625.80 255.56 626.86 C 255.95 627.59 256.36 628.33 256.79 629.06 L 256.29 628.27 C 256.94 633.20 260.48 636.93 263.16 640.90 C 266.01 644.51 268.33 648.98 272.79 650.86 L 272.17 650.13 C 275.00 653.10 277.98 655.95 280.98 658.75 L 280.25 658.12 C 280.92 660.77 282.97 662.51 285.68 662.84 L 284.97 662.22 C 285.61 662.71 286.26 663.18 286.94 663.64 C 284.83 664.71 288.36 667.28 289.20 665.28 C 291.41 666.83 293.65 668.34 295.91 669.82 L 295.03 669.33 C 297.56 673.24 302.28 675.30 306.80 675.71 L 305.95 675.27 C 306.95 675.74 307.95 676.22 308.98 676.65 L 307.96 676.24 C 309.47 678.16 311.75 679.22 314.03 679.96 C 327.21 684.41 341.05 687.32 355.01 687.06 C 378.29 687.54 401.49 682.58 423.06 673.97 C 437.53 668.05 451.50 660.93 464.86 652.81 C 467.80 651.01 471.26 649.57 472.94 646.34 L 472.10 646.85 C 478.17 642.71 484.29 638.65 490.43 634.61 C 493.74 634.50 496.60 632.53 497.84 629.46 C 498.89 628.68 499.95 627.91 501.01 627.13 C 501.73 629.47 505.78 626.47 504.41 624.72 C 505.63 623.88 506.84 623.04 508.04 622.19 L 507.28 622.78 C 510.90 622.12 513.61 619.53 516.48 617.45 C 519.21 615.38 522.28 613.49 523.86 610.31 L 523.08 610.87 C 523.43 610.60 524.13 610.06 524.48 609.79 C 526.76 609.27 528.81 608.09 530.58 606.58 C 541.21 597.51 553.30 590.38 565.29 583.28 C 569.47 580.62 574.57 579.12 577.79 575.16 L 576.86 575.61 C 577.81 575.09 578.75 574.54 579.68 573.97 C 579.11 573.96 577.97 573.96 577.40 573.96 C 574.79 572.74 571.93 572.31 569.08 572.30 C 549.13 572.03 529.31 567.67 510.84 560.21 C 507.04 558.72 503.45 556.39 499.26 556.27 L 500.15 556.75 C 498.54 555.97 496.94 555.20 495.38 554.37 C 496.39 552.34 491.90 549.71 491.07 551.94 C 490.31 551.49 489.57 551.05 488.83 550.61 C 487.39 548.23 485.05 546.73 482.78 545.26 C 479.43 543.13 476.43 540.26 472.49 539.24 C 472.15 538.96 471.47 538.40 471.13 538.13 L 471.87 538.70 C 471.07 536.18 469.09 534.53 466.47 534.20 C 462.99 531.25 459.79 527.97 456.78 524.54 C 456.28 521.47 454.13 519.19 451.29 518.08 L 451.86 518.81 C 451.51 518.40 450.82 517.57 450.47 517.16 C 452.39 516.23 449.72 512.84 448.73 514.96 C 447.91 513.67 447.03 512.43 446.21 511.17 L 446.55 511.33 C 445.58 506.66 442.08 503.06 440.16 498.78 C 432.00 482.44 428.34 463.37 432.18 445.34 C 433.16 439.82 436.35 434.88 436.69 429.23 L 436.25 430.13 C 437.49 427.21 438.80 424.31 440.56 421.65 C 441.15 421.52 442.34 421.25 442.94 421.12 C 442.67 433.24 446.92 444.92 452.47 455.52 C 453.34 457.34 454.76 458.82 456.52 459.84 C 457.16 460.85 457.83 461.86 458.56 462.83 C 456.57 463.69 459.18 467.21 460.22 465.09 C 460.48 465.44 460.99 466.14 461.25 466.49 C 462.45 470.91 466.16 474.54 470.54 475.82 C 471.31 476.47 472.12 477.09 472.95 477.71 L 472.12 477.14 C 473.10 480.03 475.79 481.58 478.75 481.73 L 477.96 481.19 C 479.68 482.27 481.43 483.34 483.18 484.40 C 484.29 486.09 485.83 487.45 487.67 488.32 C 497.01 493.16 506.83 497.07 516.92 500.07 C 533.49 505.32 550.93 506.42 568.02 508.96 C 572.94 509.57 577.83 511.45 582.84 510.50 L 581.84 510.24 C 583.96 510.67 586.08 511.11 588.19 511.67 C 587.56 511.68 586.32 511.69 585.69 511.70 C 587.22 512.42 588.81 513.05 590.44 513.53 C 612.24 519.05 633.37 527.03 655.43 531.58 C 667.01 533.86 679.89 536.57 690.94 530.91 C 695.30 528.44 700.48 525.67 701.90 520.47 C 702.09 520.19 702.48 519.64 702.68 519.36 C 704.13 521.00 706.48 517.33 704.20 516.99 C 704.66 516.29 705.10 515.57 705.51 514.85 C 709.96 512.14 708.55 504.99 705.09 501.94 C 699.66 497.51 692.60 495.96 686.57 492.57 C 682.03 490.45 678.43 486.54 673.47 485.33 C 673.12 485.04 672.43 484.47 672.08 484.18 L 672.82 484.78 C 670.81 480.81 667.51 477.48 663.63 475.37 L 663.72 475.79 C 663.47 475.47 662.96 474.84 662.71 474.52 C 661.35 469.34 657.49 465.36 655.49 460.45 C 652.55 454.52 651.69 447.92 650.08 441.59 C 649.93 442.07 649.62 443.03 649.46 443.51 C 649.39 442.83 649.25 441.46 649.17 440.78 L 649.44 441.87 C 650.39 437.78 650.41 433.44 649.02 429.48 C 648.91 430.42 648.68 432.31 648.56 433.25 C 648.41 431.87 648.18 430.50 648.12 429.13 L 649.24 429.23 C 648.65 411.62 644.36 394.30 638.07 377.90 C 636.92 375.04 635.94 371.86 633.32 369.97 L 633.75 370.96 C 631.83 367.33 630.01 363.65 628.19 359.97 L 628.69 360.80 C 628.33 356.26 625.20 352.75 622.89 349.05 C 620.65 345.82 618.84 342.01 615.23 340.07 L 615.77 340.87 C 615.44 340.45 614.77 339.59 614.44 339.16 C 616.39 338.22 613.63 334.85 612.66 336.99 C 612.04 336.16 611.41 335.34 610.76 334.55 C 610.47 331.88 608.75 329.92 606.21 329.13 L 606.81 329.87 C 605.83 328.73 604.85 327.59 603.84 326.49 C 602.91 322.89 600.08 320.09 596.48 319.19 C 595.33 318.18 594.14 317.20 592.96 316.23 C 595.24 315.12 591.27 311.81 589.85 313.54 C 589.44 313.20 588.62 312.51 588.21 312.17 L 588.98 312.73 C 586.62 308.58 582.30 305.50 577.66 304.47 L 577.90 304.83 C 577.20 304.39 576.51 303.95 575.83 303.52 C 574.83 302.09 573.67 300.74 572.14 299.88 C 566.53 296.61 560.59 293.97 554.84 291.00 C 561.90 266.39 568.40 241.38 570.64 215.82 C 570.09 216.92 569.61 218.06 569.22 219.23 C 569.33 218.38 569.54 216.68 569.64 215.83 C 565.14 214.51 560.54 216.35 556.17 217.37 M 649.71 592.54 C 654.60 592.90 659.51 593.09 664.42 593.27 C 659.36 593.75 654.27 593.78 649.20 593.94 C 646.85 593.22 644.39 592.80 641.94 593.04 C 614.29 595.63 587.47 604.73 563.30 618.28 C 559.71 620.45 555.38 621.94 553.07 625.68 L 553.93 625.18 C 548.98 628.46 544.00 631.68 538.95 634.80 L 539.73 634.26 C 536.81 634.44 534.14 635.94 533.14 638.80 L 533.95 638.26 C 532.51 639.30 531.06 640.33 529.59 641.31 C 526.67 641.39 524.11 642.93 523.13 645.75 L 523.94 645.21 C 521.32 647.19 518.63 649.08 515.94 650.96 C 515.79 648.28 511.52 651.41 514.12 652.24 C 510.65 654.68 507.18 657.14 503.59 659.40 C 498.67 660.41 493.91 663.32 491.21 667.61 C 490.33 668.18 489.45 668.75 488.57 669.32 C 485.65 669.69 483.13 671.23 480.72 672.81 C 477.69 674.80 474.18 676.38 472.19 679.57 C 471.43 680.01 470.68 680.46 469.93 680.92 C 469.08 678.69 464.60 681.33 465.62 683.35 C 464.79 683.79 463.96 684.23 463.13 684.68 L 463.32 684.37 C 458.93 684.78 455.34 687.69 451.41 689.45 C 437.56 696.07 423.16 701.69 408.24 705.37 C 390.05 710.08 371.05 711.25 352.37 709.57 C 338.94 708.01 325.80 704.25 313.55 698.58 C 310.25 697.09 306.95 695.21 303.22 695.29 L 304.15 695.75 C 303.03 695.28 301.90 694.86 300.76 694.50 C 301.43 695.69 302.14 696.87 302.89 698.02 L 302.33 697.22 C 302.55 700.53 304.50 703.46 307.56 704.80 C 309.06 706.85 310.52 708.94 312.00 711.01 C 309.82 711.59 312.23 715.64 314.02 714.40 L 314.14 713.93 C 316.83 717.46 319.59 720.93 322.31 724.45 C 322.49 727.16 324.22 729.15 326.83 729.87 L 326.22 729.12 C 327.20 730.24 328.19 731.35 329.18 732.47 C 329.96 735.91 332.49 738.69 335.86 739.77 L 335.21 739.04 C 338.20 741.88 341.11 744.80 343.99 747.75 L 343.28 747.10 C 344.67 750.76 347.66 753.86 351.57 754.73 C 352.74 755.72 353.92 756.69 355.10 757.69 C 352.78 758.82 356.75 762.12 358.18 760.35 C 358.62 760.70 359.51 761.40 359.95 761.75 L 359.46 761.91 C 358.52 763.79 361.79 765.73 363.18 764.35 C 363.61 764.67 364.48 765.31 364.91 765.63 C 362.84 766.67 366.27 769.29 367.18 767.37 C 367.61 767.69 368.48 768.33 368.91 768.65 C 366.85 769.72 370.34 772.30 371.21 770.35 C 372.77 771.50 374.34 772.64 375.91 773.79 L 375.10 773.25 C 376.05 776.10 378.69 777.53 381.59 777.60 C 385.41 779.91 389.15 782.35 392.92 784.76 L 392.02 784.26 C 394.09 787.59 397.93 788.90 401.16 790.77 C 405.11 792.75 408.93 795.58 413.54 795.59 C 415.02 796.26 416.48 796.98 417.96 797.67 L 416.95 797.26 C 417.70 798.12 418.54 798.90 419.48 799.59 C 456.13 815.91 497.03 823.00 537.01 818.97 C 567.91 816.11 597.90 806.01 624.88 790.81 C 628.38 788.66 632.67 787.17 634.78 783.38 C 637.62 781.40 640.53 779.53 643.42 777.63 C 647.01 777.09 649.72 774.58 652.53 772.50 C 655.26 770.40 658.39 768.52 659.92 765.28 L 659.16 765.84 C 659.58 765.50 660.42 764.80 660.84 764.46 C 662.20 765.82 665.49 763.82 664.48 761.98 L 663.99 761.84 C 664.35 761.55 665.08 760.98 665.45 760.69 C 668.09 760.47 670.06 758.81 670.85 756.29 L 670.10 756.88 C 670.74 756.34 671.37 755.79 672.01 755.24 L 671.32 755.89 C 674.38 755.29 676.91 753.24 677.78 750.19 L 677.03 750.81 C 678.00 749.92 678.98 749.04 679.97 748.18 L 679.26 748.84 C 682.34 748.29 684.99 746.27 685.66 743.10 L 684.92 743.74 C 686.58 742.20 688.28 740.69 689.96 739.17 L 689.25 739.86 C 691.06 739.32 692.81 738.51 694.13 737.13 C 697.84 733.52 701.46 729.81 705.18 726.22 C 707.96 723.44 711.16 720.92 712.89 717.30 L 712.15 717.88 C 713.94 716.21 715.66 714.45 717.49 712.82 C 721.61 711.57 724.83 708.33 726.71 704.54 C 726.93 704.34 727.36 703.96 727.58 703.77 C 730.56 703.25 732.82 701.16 733.90 698.38 L 733.17 698.95 C 733.51 698.67 734.18 698.11 734.52 697.82 C 738.39 696.66 741.27 693.73 744.47 691.42 C 747.16 689.39 750.24 687.60 751.87 684.51 C 752.71 683.91 753.57 683.32 754.44 682.76 C 759.56 681.44 764.47 678.57 767.89 674.52 C 768.61 674.11 769.35 673.71 770.09 673.32 L 769.29 673.78 C 772.68 673.55 776.05 672.24 778.06 669.38 L 777.08 669.80 C 778.10 669.30 779.13 668.82 780.18 668.35 L 779.35 668.75 C 784.22 668.22 789.43 666.84 793.08 663.41 L 792.04 663.77 C 792.61 663.56 793.75 663.14 794.32 662.93 L 794.79 663.54 C 793.19 657.96 789.31 653.50 786.21 648.72 C 783.63 645.27 781.52 641.09 777.44 639.20 C 776.93 638.59 776.42 638.01 775.90 637.44 C 773.89 632.39 769.52 628.17 764.50 626.14 C 763.73 625.45 762.95 624.79 762.16 624.16 L 762.94 624.73 C 760.47 620.04 755.37 617.81 751.24 614.86 C 721.33 595.71 684.68 589.78 649.71 592.54 Z" />
<path fill="#34526d" opacity="1.00" d=" M 562.75 401.13 C 566.47 401.03 570.21 400.85 573.93 401.17 C 580.21 401.70 586.21 403.82 592.45 404.60 C 594.92 405.46 597.92 406.56 599.36 408.77 C 599.27 410.25 600.47 411.37 601.96 410.99 C 603.73 411.02 604.88 412.80 606.15 413.86 C 608.79 416.87 611.81 419.78 613.41 423.52 C 614.26 427.25 615.48 431.09 618.44 433.71 L 618.78 434.08 C 619.62 436.47 620.50 438.85 621.27 441.27 C 618.45 439.64 615.40 438.34 612.81 436.36 C 608.62 432.16 602.67 430.80 597.29 428.80 C 590.69 426.70 584.28 423.95 577.51 422.40 C 576.38 422.16 575.40 421.48 574.78 420.53 C 573.48 418.37 571.85 416.35 569.44 415.42 L 568.95 415.17 C 568.90 414.98 568.79 414.59 568.73 414.39 C 567.70 410.51 566.47 406.60 564.23 403.23 C 564.05 403.00 563.67 402.54 563.49 402.32 C 563.30 402.02 562.93 401.43 562.75 401.13 Z" />
</g>
<g id="#050f2aff">
<path fill="#050f2a" opacity="1.00" d=" M 593.73 184.02 C 596.19 183.98 598.65 183.98 601.11 183.95 C 601.08 184.65 601.00 186.04 600.96 186.73 C 598.64 185.60 596.24 184.62 593.73 184.02 Z" />
<path fill="#050f2a" opacity="1.00" d=" M 509.74 203.58 C 534.42 191.79 561.63 186.33 588.78 184.46 C 589.96 184.77 591.14 185.10 592.32 185.46 C 571.41 186.80 550.45 189.77 530.54 196.53 C 523.48 198.54 517.04 202.42 509.74 203.58 Z" />
<path fill="#050f2a" opacity="1.00" d=" M 599.52 187.72 C 599.86 188.89 600.20 190.07 600.52 191.25 C 598.82 219.78 594.50 248.19 587.08 275.81 C 593.40 279.79 599.58 284.02 605.36 288.76 C 598.60 285.49 592.40 281.05 586.56 276.37 C 586.21 272.36 587.80 268.51 588.63 264.65 C 594.77 239.45 598.04 213.60 599.52 187.72 Z" />
<path fill="#050f2a" opacity="1.00" d=" M 499.71 208.55 C 502.26 207.12 504.88 205.78 507.55 204.57 C 505.85 207.31 502.69 208.09 499.71 208.55 Z" />
<path fill="#050f2a" opacity="1.00" d=" M 482.53 218.73 C 487.43 215.35 492.56 212.29 497.84 209.55 C 493.55 213.78 488.26 216.87 482.53 218.73 Z" />
<path fill="#050f2a" opacity="1.00" d=" M 556.17 217.37 C 560.54 216.35 565.14 214.51 569.64 215.83 C 565.50 216.74 561.32 217.44 557.20 218.45 L 556.41 217.90 L 556.17 217.37 Z" />
<path fill="#050f2a" opacity="1.00" d=" M 569.22 219.23 C 569.61 218.06 570.09 216.92 570.64 215.82 C 568.40 241.38 561.90 266.39 554.84 291.00 C 560.59 293.97 566.53 296.61 572.14 299.88 C 573.67 300.74 574.83 302.09 575.83 303.52 C 568.56 299.11 561.03 295.12 553.22 291.76 C 560.39 268.05 566.23 243.86 569.22 219.23 Z" />
<path fill="#050f2a" opacity="1.00" d=" M 553.25 219.39 C 550.88 218.05 555.50 216.65 554.88 219.05 C 554.47 219.13 553.65 219.30 553.25 219.39 Z" />
<path fill="#050f2a" opacity="1.00" d=" M 545.18 220.18 C 547.30 219.51 549.53 219.24 551.76 219.46 L 550.79 219.85 C 539.48 222.97 528.41 226.99 517.90 232.23 L 516.93 232.66 C 518.70 229.91 521.92 228.95 524.75 227.70 C 531.41 224.81 538.24 222.31 545.18 220.18 Z" />
<path fill="#050f2a" opacity="1.00" d=" M 467.73 229.82 C 471.54 226.45 475.65 223.44 479.86 220.58 C 476.72 224.71 472.52 227.86 467.73 229.82 Z" />
<path fill="#050f2a" opacity="1.00" d=" M 458.52 237.86 C 461.15 235.32 463.85 232.85 466.75 230.63 C 464.85 233.89 461.98 236.37 458.52 237.86 Z" />
<path fill="#050f2a" opacity="1.00" d=" M 499.58 241.61 C 504.09 238.82 508.35 235.03 513.80 234.32 L 512.97 234.82 C 504.87 239.32 497.14 244.47 489.83 250.15 L 489.05 250.72 C 491.29 246.44 495.87 244.38 499.58 241.61 Z" />
<path fill="#050f2a" opacity="1.00" d=" M 440.05 254.16 C 443.04 253.99 445.00 251.61 446.96 249.65 C 445.68 252.09 444.16 254.80 441.10 255.08 C 421.35 259.52 401.36 263.64 382.69 271.71 C 378.87 273.46 374.91 274.93 370.74 275.57 C 392.66 265.05 416.31 258.94 440.05 254.16 Z" />
<path fill="#050f2a" opacity="1.00" d=" M 486.07 253.42 C 483.90 252.50 487.16 249.64 488.17 251.57 C 487.50 252.22 486.80 252.84 486.07 253.42 Z" />
<path fill="#050f2a" opacity="1.00" d=" M 471.33 265.34 C 474.49 262.37 477.10 258.35 481.54 257.20 C 475.14 263.00 469.09 269.19 463.22 275.53 C 464.42 271.13 468.42 268.55 471.33 265.34 Z" />
<path fill="#050f2a" opacity="1.00" d=" M 354.75 283.57 C 358.59 281.37 362.56 279.42 366.58 277.57 C 363.57 281.08 359.19 282.76 354.75 283.57 Z" />
<path fill="#050f2a" opacity="1.00" d=" M 440.42 282.43 C 446.93 281.01 453.90 281.41 459.92 278.33 L 460.38 278.93 C 459.46 279.78 458.77 281.10 457.46 281.37 C 430.15 283.93 403.75 292.75 378.96 304.24 L 377.98 304.67 C 380.20 301.67 383.93 300.67 387.17 299.20 C 404.29 291.82 422.13 286.07 440.42 282.43 Z" />
<path fill="#050f2a" opacity="1.00" d=" M 332.56 296.77 C 339.10 292.35 345.83 288.18 352.87 284.60 C 346.90 289.80 339.93 293.90 332.56 296.77 Z" />
<path fill="#050f2a" opacity="1.00" d=" M 610.37 292.68 C 608.36 293.59 605.69 291.96 606.66 289.64 C 608.00 290.50 609.22 291.56 610.37 292.68 Z" />
<path fill="#050f2a" opacity="1.00" d=" M 619.45 300.88 C 616.94 299.71 614.44 298.21 613.50 295.45 C 615.55 297.18 617.51 299.02 619.45 300.88 Z" />
<path fill="#050f2a" opacity="1.00" d=" M 319.70 305.79 C 322.97 303.22 326.40 300.85 329.88 298.57 C 327.33 302.01 323.77 304.47 319.70 305.79 Z" />
<path fill="#050f2a" opacity="1.00" d=" M 577.66 304.47 C 582.30 305.50 586.62 308.58 588.98 312.73 L 588.21 312.17 C 584.84 309.62 581.39 307.18 577.90 304.83 L 577.66 304.47 Z" />
<path fill="#050f2a" opacity="1.00" d=" M 315.77 308.89 C 316.40 307.92 317.22 307.17 318.23 306.62 C 319.84 308.24 317.22 309.58 315.77 308.89 Z" />
<path fill="#050f2a" opacity="1.00" d=" M 625.13 306.55 C 627.63 309.10 630.07 311.72 632.27 314.55 C 628.95 312.85 626.57 309.96 625.13 306.55 Z" />
<path fill="#050f2a" opacity="1.00" d=" M 354.06 317.68 C 357.52 313.09 363.28 310.36 368.81 309.26 L 367.96 309.75 C 363.56 312.11 359.23 314.62 354.94 317.18 L 354.06 317.68 Z" />
<path fill="#050f2a" opacity="1.00" d=" M 310.57 312.89 C 311.70 311.39 313.20 310.23 314.95 309.50 C 314.78 311.78 312.80 313.27 310.57 312.89 Z" />
<path fill="#050f2a" opacity="1.00" d=" M 589.85 313.54 C 591.27 311.81 595.24 315.12 592.96 316.23 C 591.88 315.38 590.85 314.47 589.85 313.54 Z" />
<path fill="#050f2a" opacity="1.00" d=" M 305.64 316.69 C 306.76 315.51 308.00 314.43 309.41 313.62 C 310.23 315.92 307.66 317.53 305.64 316.69 Z" />
<path fill="#050f2a" opacity="1.00" d=" M 633.24 315.69 C 635.81 318.49 638.11 321.51 640.39 324.55 C 636.97 322.57 634.66 319.32 633.24 315.69 Z" />
<path fill="#050f2a" opacity="1.00" d=" M 298.52 322.96 C 300.19 321.45 301.90 319.99 303.68 318.61 C 302.41 320.54 300.59 321.96 298.52 322.96 Z" />
<path fill="#050f2a" opacity="1.00" d=" M 347.05 322.25 C 344.86 320.75 349.67 317.89 351.12 319.61 C 349.77 320.50 348.42 321.38 347.05 322.25 Z" />
<path fill="#050f2a" opacity="1.00" d=" M 596.48 319.19 C 600.08 320.09 602.91 322.89 603.84 326.49 C 601.47 323.97 599.04 321.51 596.48 319.19 Z" />
<path fill="#050f2a" opacity="1.00" d=" M 336.13 329.73 C 337.50 326.64 340.47 324.66 343.80 324.31 L 343.02 324.89 C 340.98 326.31 338.98 327.77 336.94 329.19 L 336.13 329.73 Z" />
<path fill="#050f2a" opacity="1.00" d=" M 279.64 341.55 C 284.31 336.28 289.25 331.24 294.52 326.57 C 290.70 332.53 285.55 337.66 279.64 341.55 Z" />
<path fill="#050f2a" opacity="1.00" d=" M 606.21 329.13 C 608.75 329.92 610.47 331.88 610.76 334.55 C 609.45 332.98 608.10 331.45 606.81 329.87 L 606.21 329.13 Z" />
<path fill="#050f2a" opacity="1.00" d=" M 643.27 328.46 C 645.48 331.51 647.56 334.65 649.44 337.92 C 646.34 335.55 644.26 332.21 643.27 328.46 Z" />
<path fill="#050f2a" opacity="1.00" d=" M 327.12 336.78 C 328.59 333.31 331.86 331.01 335.49 330.27 C 332.97 332.25 330.44 334.23 327.91 336.20 L 327.12 336.78 Z" />
<path fill="#050f2a" opacity="1.00" d=" M 612.66 336.99 C 613.63 334.85 616.39 338.22 614.44 339.16 C 613.79 338.47 613.20 337.75 612.66 336.99 Z" />
<path fill="#050f2a" opacity="1.00" d=" M 320.12 342.76 C 321.22 339.86 323.57 337.68 326.67 337.15 L 325.98 337.77 C 324.29 339.26 322.58 340.72 320.85 342.16 L 320.12 342.76 Z" />
<path fill="#050f2a" opacity="1.00" d=" M 615.23 340.07 C 618.84 342.01 620.65 345.82 622.89 349.05 C 625.20 352.75 628.33 356.26 628.69 360.80 L 628.19 359.97 C 624.49 353.32 620.19 347.05 615.77 340.87 L 615.23 340.07 Z" />
<path fill="#050f2a" opacity="1.00" d=" M 652.42 342.56 C 650.66 343.47 649.00 340.84 650.81 339.81 C 651.48 340.64 652.01 341.56 652.42 342.56 Z" />
<path fill="#050f2a" opacity="1.00" d=" M 306.23 355.77 C 308.94 350.84 313.26 346.31 318.54 344.19 C 314.64 347.81 310.73 351.42 306.91 355.13 L 306.23 355.77 Z" />
<path fill="#050f2a" opacity="1.00" d=" M 271.74 350.57 C 273.35 348.45 275.08 346.43 276.92 344.50 C 275.81 347.00 274.13 349.18 271.74 350.57 Z" />
<path fill="#050f2a" opacity="1.00" d=" M 661.23 362.88 C 658.83 356.72 655.06 351.13 653.42 344.68 C 660.15 356.02 665.14 368.34 669.08 380.90 C 674.84 399.26 677.07 418.48 678.38 437.60 C 678.17 438.03 677.74 438.88 677.53 439.31 C 676.22 429.79 675.99 420.15 674.41 410.66 C 672.09 394.25 667.77 378.12 661.23 362.88 Z" />
<path fill="#050f2a" opacity="1.00" d=" M 266.56 356.91 C 267.88 355.10 269.26 353.34 270.78 351.70 C 269.64 353.63 268.27 355.43 266.56 356.91 Z" />
<path fill="#050f2a" opacity="1.00" d=" M 263.63 360.23 C 264.12 359.29 264.78 358.50 265.61 357.84 C 267.02 359.16 265.18 361.66 263.63 360.23 Z" />
<path fill="#050f2a" opacity="1.00" d=" M 294.23 368.52 C 295.24 364.70 298.19 361.62 301.87 360.26 L 301.22 360.97 C 298.87 363.47 296.50 365.95 294.23 368.52 Z" />
<path fill="#050f2a" opacity="1.00" d=" M 257.58 368.52 C 259.25 366.18 260.99 363.89 262.81 361.66 C 261.78 364.42 260.39 367.22 257.58 368.52 Z" />
<path fill="#050f2a" opacity="1.00" d=" M 289.51 374.15 C 288.16 372.74 290.20 369.52 292.05 370.51 L 292.20 370.99 C 291.35 372.08 290.44 373.13 289.51 374.15 Z" />
<path fill="#050f2a" opacity="1.00" d=" M 633.32 369.97 C 635.94 371.86 636.92 375.04 638.07 377.90 C 644.36 394.30 648.65 411.62 649.24 429.23 L 648.12 429.13 C 647.05 409.06 641.98 389.27 633.75 370.96 L 633.32 369.97 Z" />
<path fill="#050f2a" opacity="1.00" d=" M 245.62 386.90 C 248.45 381.96 251.55 377.19 254.80 372.51 C 252.99 378.00 249.87 382.98 245.62 386.90 Z" />
<path fill="#050f2a" opacity="1.00" d=" M 281.25 384.76 C 281.85 381.01 284.26 377.66 287.78 376.14 L 287.20 376.93 C 285.40 379.27 283.61 381.63 281.84 383.99 L 281.25 384.76 Z" />
<path fill="#050f2a" opacity="1.00" d=" M 274.27 394.73 C 274.53 391.42 276.39 388.42 279.54 387.19 C 277.95 389.43 276.36 391.67 274.82 393.95 L 274.27 394.73 Z" />
<path fill="#050f2a" opacity="1.00" d=" M 244.24 388.82 C 246.04 389.86 244.38 392.48 242.62 391.58 C 243.02 390.57 243.56 389.66 244.24 388.82 Z" />
<path fill="#050f2a" opacity="1.00" d=" M 241.65 393.68 C 241.12 396.53 239.60 398.98 237.46 400.92 C 238.77 398.45 240.17 396.04 241.65 393.68 Z" />
<path fill="#050f2a" opacity="1.00" d=" M 562.97 399.76 C 572.95 399.60 583.32 400.17 592.45 404.60 C 586.21 403.82 580.21 401.70 573.93 401.17 C 570.21 400.85 566.47 401.03 562.75 401.13 L 562.97 399.76 Z" />
<path fill="#050f2a" opacity="1.00" d=" M 563.49 402.32 C 563.67 402.54 564.05 403.00 564.23 403.23 C 566.47 406.60 567.70 410.51 568.73 414.39 C 566.07 410.85 564.30 406.66 563.49 402.32 Z" />
<path fill="#050f2a" opacity="1.00" d=" M 262.26 414.80 C 262.25 411.65 263.65 408.58 266.59 407.19 C 265.26 409.42 263.97 411.67 262.74 413.96 L 262.26 414.80 Z" />
<path fill="#050f2a" opacity="1.00" d=" M 601.96 410.99 C 600.47 411.37 599.27 410.25 599.36 408.77 C 600.94 408.70 601.81 409.44 601.96 410.99 Z" />
<path fill="#050f2a" opacity="1.00" d=" M 231.08 413.20 C 233.51 412.72 231.81 416.22 230.73 413.96 L 231.08 413.20 Z" />
<path fill="#050f2a" opacity="1.00" d=" M 569.44 415.42 C 571.85 416.35 573.48 418.37 574.78 420.53 C 572.58 419.31 570.89 417.43 569.44 415.42 Z" />
<path fill="#050f2a" opacity="1.00" d=" M 213.60 458.97 C 217.89 444.47 223.12 430.24 229.62 416.58 C 228.95 420.00 227.99 423.37 226.53 426.55 C 221.74 437.27 217.94 448.41 214.75 459.71 C 214.46 459.52 213.89 459.15 213.60 458.97 Z" />
<path fill="#050f2a" opacity="1.00" d=" M 440.56 421.65 C 441.76 419.76 442.93 417.85 444.18 415.99 C 443.01 431.53 448.29 446.83 456.52 459.84 C 454.76 458.82 453.34 457.34 452.47 455.52 C 446.92 444.92 442.67 433.24 442.94 421.12 C 442.34 421.25 441.15 421.52 440.56 421.65 Z" />
<path fill="#050f2a" opacity="1.00" d=" M 255.33 428.24 C 255.45 424.35 257.25 420.31 260.57 418.10 C 258.88 421.40 257.22 424.71 255.62 428.05 L 255.33 428.24 Z" />
<path fill="#050f2a" opacity="1.00" d=" M 577.51 422.40 C 584.28 423.95 590.69 426.70 597.29 428.80 C 602.67 430.80 608.62 432.16 612.81 436.36 C 607.59 434.18 602.48 431.75 597.10 430.00 C 590.53 427.60 583.48 426.20 577.51 422.40 Z" />
<path fill="#050f2a" opacity="1.00" d=" M 618.44 433.71 C 615.48 431.09 614.26 427.25 613.41 423.52 C 615.59 426.63 617.22 430.11 618.44 433.71 Z" />
<path fill="#050f2a" opacity="1.00" d=" M 249.68 438.63 C 250.94 435.54 251.90 432.04 254.70 429.94 L 254.25 430.93 C 243.14 455.94 235.79 482.75 233.91 510.11 L 232.78 510.21 C 234.25 485.62 240.42 461.42 249.68 438.63 Z" />
<path fill="#050f2a" opacity="1.00" d=" M 436.25 430.13 L 436.69 429.23 C 436.35 434.88 433.16 439.82 432.18 445.34 C 428.34 463.37 432.00 482.44 440.16 498.78 C 442.08 503.06 445.58 506.66 446.55 511.33 L 446.21 511.17 C 437.50 498.73 431.73 484.21 429.87 469.12 C 428.09 455.85 430.40 442.16 436.25 430.13 Z" />
<path fill="#050f2a" opacity="1.00" d=" M 649.02 429.48 C 650.41 433.44 650.39 437.78 649.44 441.87 L 649.17 440.78 C 648.92 438.27 648.78 435.76 648.56 433.25 C 648.68 432.31 648.91 430.42 649.02 429.48 Z" />
<path fill="#050f2a" opacity="1.00" d=" M 679.47 441.90 C 677.75 443.85 676.59 439.98 679.02 440.30 C 679.13 440.70 679.36 441.50 679.47 441.90 Z" />
<path fill="#050f2a" opacity="1.00" d=" M 649.46 443.51 C 649.62 443.03 649.93 442.07 650.08 441.59 C 651.69 447.92 652.55 454.52 655.49 460.45 C 657.49 465.36 661.35 469.34 662.71 474.52 C 655.68 465.58 650.78 454.85 649.46 443.51 Z" />
<path fill="#050f2a" opacity="1.00" d=" M 682.36 449.66 C 680.19 450.03 678.91 447.19 680.76 445.91 C 681.33 447.13 681.89 448.37 682.36 449.66 Z" />
<path fill="#050f2a" opacity="1.00" d=" M 683.14 451.55 C 684.86 453.91 686.58 456.28 688.31 458.65 C 685.58 457.13 683.89 454.53 683.14 451.55 Z" />
<path fill="#050f2a" opacity="1.00" d=" M 458.56 462.83 C 459.15 463.54 459.71 464.30 460.22 465.09 C 459.18 467.21 456.57 463.69 458.56 462.83 Z" />
<path fill="#050f2a" opacity="1.00" d=" M 212.37 463.70 C 212.49 467.22 212.08 470.75 211.17 474.16 C 207.87 487.34 206.53 500.89 205.35 514.39 C 205.04 512.88 204.76 511.38 204.53 509.87 C 205.69 494.28 208.31 478.80 212.37 463.70 Z" />
<path fill="#050f2a" opacity="1.00" d=" M 461.25 466.49 C 464.11 469.82 467.24 472.92 470.54 475.82 C 466.16 474.54 462.45 470.91 461.25 466.49 Z" />
<path fill="#050f2a" opacity="1.00" d=" M 700.23 469.57 C 698.77 471.24 696.93 469.11 697.59 467.47 C 698.58 468.01 699.46 468.71 700.23 469.57 Z" />
<path fill="#050f2a" opacity="1.00" d=" M 715.73 480.22 C 710.61 477.62 705.01 475.33 701.35 470.70 C 709.18 476.04 717.81 479.91 726.49 483.62 C 722.77 482.94 719.10 481.94 715.73 480.22 Z" />
<path fill="#050f2a" opacity="1.00" d=" M 663.63 475.37 C 667.51 477.48 670.81 480.81 672.82 484.78 L 672.08 484.18 C 668.99 481.70 666.21 478.85 663.72 475.79 L 663.63 475.37 Z" />
<path fill="#050f2a" opacity="1.00" d=" M 472.12 477.14 L 472.95 477.71 C 474.60 478.88 476.27 480.04 477.96 481.19 L 478.75 481.73 C 475.79 481.58 473.10 480.03 472.12 477.14 Z" />
<path fill="#050f2a" opacity="1.00" d=" M 483.18 484.40 C 495.72 491.70 509.40 496.96 523.43 500.60 C 542.60 505.56 562.58 505.76 581.84 510.24 L 582.84 510.50 C 577.83 511.45 572.94 509.57 568.02 508.96 C 550.93 506.42 533.49 505.32 516.92 500.07 C 506.83 497.07 497.01 493.16 487.67 488.32 C 485.83 487.45 484.29 486.09 483.18 484.40 Z" />
<path fill="#050f2a" opacity="1.00" d=" M 673.47 485.33 C 678.43 486.54 682.03 490.45 686.57 492.57 C 692.60 495.96 699.66 497.51 705.09 501.94 C 708.55 504.99 709.96 512.14 705.51 514.85 C 707.10 511.62 707.90 507.47 705.66 504.35 C 703.05 501.01 698.88 499.54 695.16 497.83 C 687.35 494.79 679.93 490.68 673.47 485.33 Z" />
<path fill="#050f2a" opacity="1.00" d=" M 732.66 508.67 C 733.55 501.65 732.86 494.55 731.72 487.61 C 732.55 489.11 733.27 490.69 733.65 492.39 C 735.70 504.34 733.43 516.84 727.55 527.43 C 728.71 521.03 731.88 515.16 732.66 508.67 Z" />
<path fill="#050f2a" opacity="1.00" d=" M 232.54 510.60 C 233.00 511.78 233.32 513.00 233.52 514.25 C 232.87 523.74 232.79 533.29 233.54 542.78 C 233.24 543.98 232.91 545.19 232.54 546.38 C 231.72 540.62 232.07 534.79 232.00 529.00 C 232.09 522.86 231.68 516.69 232.54 510.60 Z" />
<path fill="#050f2a" opacity="1.00" d=" M 585.69 511.70 C 586.32 511.69 587.56 511.68 588.19 511.67 C 609.57 516.84 630.20 524.79 651.72 529.45 C 661.57 531.54 671.64 534.05 681.78 532.69 C 689.80 531.45 696.80 526.63 701.90 520.47 C 700.48 525.67 695.30 528.44 690.94 530.91 C 679.89 536.57 667.01 533.86 655.43 531.58 C 633.37 527.03 612.24 519.05 590.44 513.53 C 588.81 513.05 587.22 512.42 585.69 511.70 Z" />
<path fill="#050f2a" opacity="1.00" d=" M 448.73 514.96 C 449.72 512.84 452.39 516.23 450.47 517.16 C 449.81 516.48 449.23 515.74 448.73 514.96 Z" />
<path fill="#050f2a" opacity="1.00" d=" M 204.13 514.54 C 205.60 524.07 205.45 533.90 204.13 543.44 C 203.91 533.81 203.85 524.16 204.13 514.54 Z" />
<path fill="#050f2a" opacity="1.00" d=" M 704.20 516.99 C 706.48 517.33 704.13 521.00 702.68 519.36 C 703.14 518.54 703.65 517.75 704.20 516.99 Z" />
<path fill="#050f2a" opacity="1.00" d=" M 451.29 518.08 C 454.13 519.19 456.28 521.47 456.78 524.54 C 455.08 522.68 453.40 520.80 451.86 518.81 L 451.29 518.08 Z" />
<path fill="#050f2a" opacity="1.00" d=" M 721.21 537.36 C 722.12 534.92 723.58 532.77 725.52 531.04 C 724.21 533.23 722.76 535.33 721.21 537.36 Z" />
<path fill="#050f2a" opacity="1.00" d=" M 466.47 534.20 C 469.09 534.53 471.07 536.18 471.87 538.70 L 471.13 538.13 C 469.53 536.86 467.99 535.54 466.47 534.20 Z" />
<path fill="#050f2a" opacity="1.00" d=" M 717.36 542.37 C 716.45 540.36 718.06 537.71 720.37 538.68 C 719.55 540.04 718.48 541.24 717.36 542.37 Z" />
<path fill="#050f2a" opacity="1.00" d=" M 472.49 539.24 C 476.43 540.26 479.43 543.13 482.78 545.26 C 485.05 546.73 487.39 548.23 488.83 550.61 C 483.14 547.18 477.60 543.48 472.49 539.24 Z" />
<path fill="#050f2a" opacity="1.00" d=" M 205.16 543.65 C 206.60 555.79 207.49 568.01 209.92 580.02 C 216.70 617.10 231.65 652.39 251.83 684.13 C 255.45 690.18 260.23 695.58 262.75 702.25 C 252.86 689.07 244.42 674.85 236.75 660.30 C 218.43 625.66 207.31 587.26 204.52 548.17 C 204.70 546.65 204.91 545.15 205.16 543.65 Z" />
<path fill="#050f2a" opacity="1.00" d=" M 233.78 560.08 C 233.28 555.63 232.08 550.93 233.87 546.63 C 235.57 574.42 242.40 602.21 255.56 626.86 C 254.15 625.80 252.84 624.57 252.10 622.95 C 242.43 603.25 236.51 581.82 233.78 560.08 Z" />
<path fill="#050f2a" opacity="1.00" d=" M 700.13 555.14 C 703.81 552.66 707.46 550.11 711.46 548.15 C 703.95 555.03 694.94 560.15 685.30 563.40 C 684.74 563.21 683.61 562.82 683.05 562.63 C 689.05 560.94 694.92 558.61 700.13 555.14 Z" />
<path fill="#050f2a" opacity="1.00" d=" M 491.07 551.94 C 491.90 549.71 496.39 552.34 495.38 554.37 C 493.90 553.61 492.47 552.79 491.07 551.94 Z" />
<path fill="#050f2a" opacity="1.00" d=" M 499.26 556.27 C 503.45 556.39 507.04 558.72 510.84 560.21 C 529.31 567.67 549.13 572.03 569.08 572.30 C 571.93 572.31 574.79 572.74 577.40 573.96 C 550.80 574.03 524.04 568.62 500.15 556.75 L 499.26 556.27 Z" />
<path fill="#050f2a" opacity="1.00" d=" M 682.19 565.00 C 686.61 564.92 691.04 564.98 695.42 565.72 C 713.39 567.95 731.10 572.77 747.44 580.65 C 743.98 579.97 740.57 579.02 737.33 577.63 C 727.14 573.28 716.33 570.56 705.47 568.49 C 697.76 566.96 689.84 566.83 682.19 565.00 Z" />
<path fill="#050f2a" opacity="1.00" d=" M 524.48 609.79 C 540.50 596.35 558.36 585.28 576.86 575.61 L 577.79 575.16 C 574.57 579.12 569.47 580.62 565.29 583.28 C 553.30 590.38 541.21 597.51 530.58 606.58 C 528.81 608.09 526.76 609.27 524.48 609.79 Z" />
<path fill="#050f2a" opacity="1.00" d=" M 753.30 583.50 C 754.99 584.33 756.66 585.23 758.20 586.34 C 755.99 587.73 753.35 586.00 753.30 583.50 Z" />
<path fill="#050f2a" opacity="1.00" d=" M 760.01 587.60 C 762.23 588.91 764.40 590.29 766.52 591.78 C 763.98 591.00 761.74 589.60 760.01 587.60 Z" />
<path fill="#050f2a" opacity="1.00" d=" M 649.71 592.54 C 684.68 589.78 721.33 595.71 751.24 614.86 C 755.37 617.81 760.47 620.04 762.94 624.73 L 762.16 624.16 C 734.91 602.06 699.10 592.60 664.42 593.27 C 659.51 593.09 654.60 592.90 649.71 592.54 Z" />
<path fill="#050f2a" opacity="1.00" d=" M 563.30 618.28 C 587.47 604.73 614.29 595.63 641.94 593.04 C 644.39 592.80 646.85 593.22 649.20 593.94 C 615.32 595.30 582.55 607.39 553.93 625.18 L 553.07 625.68 C 555.38 621.94 559.71 620.45 563.30 618.28 Z" />
<path fill="#050f2a" opacity="1.00" d=" M 774.39 597.63 C 772.37 598.53 769.68 596.89 770.68 594.58 C 772.01 595.46 773.23 596.50 774.39 597.63 Z" />
<path fill="#050f2a" opacity="1.00" d=" M 789.29 612.49 C 784.18 609.10 779.81 604.67 776.47 599.54 C 781.14 603.44 785.54 607.69 789.29 612.49 Z" />
<path fill="#050f2a" opacity="1.00" d=" M 508.04 622.19 C 513.08 618.45 518.07 614.64 523.08 610.87 L 523.86 610.31 C 522.28 613.49 519.21 615.38 516.48 617.45 C 513.61 619.53 510.90 622.12 507.28 622.78 L 508.04 622.19 Z" />
<path fill="#050f2a" opacity="1.00" d=" M 790.28 613.66 C 796.62 620.68 801.78 628.67 806.48 636.86 C 801.90 632.48 799.06 626.75 795.23 621.78 C 793.31 619.24 791.67 616.51 790.28 613.66 Z" />
<path fill="#050f2a" opacity="1.00" d=" M 501.01 627.13 C 502.11 626.27 503.24 625.47 504.41 624.72 C 505.78 626.47 501.73 629.47 501.01 627.13 Z" />
<path fill="#050f2a" opacity="1.00" d=" M 764.50 626.14 C 769.52 628.17 773.89 632.39 775.90 637.44 C 772.22 633.55 768.42 629.78 764.50 626.14 Z" />
<path fill="#050f2a" opacity="1.00" d=" M 256.29 628.27 L 256.79 629.06 C 261.25 636.53 266.30 643.68 272.17 650.13 L 272.79 650.86 C 268.33 648.98 266.01 644.51 263.16 640.90 C 260.48 636.93 256.94 633.20 256.29 628.27 Z" />
<path fill="#050f2a" opacity="1.00" d=" M 490.43 634.61 C 492.94 632.96 495.40 631.22 497.84 629.46 C 496.60 632.53 493.74 634.50 490.43 634.61 Z" />
<path fill="#050f2a" opacity="1.00" d=" M 533.14 638.80 C 534.14 635.94 536.81 634.44 539.73 634.26 L 538.95 634.80 C 537.27 635.94 535.61 637.10 533.95 638.26 L 533.14 638.80 Z" />
<path fill="#050f2a" opacity="1.00" d=" M 777.44 639.20 C 781.52 641.09 783.63 645.27 786.21 648.72 C 789.31 653.50 793.19 657.96 794.79 663.54 L 794.32 662.93 C 788.76 654.97 783.84 646.55 777.44 639.20 Z" />
<path fill="#050f2a" opacity="1.00" d=" M 808.30 639.92 C 807.38 642.25 805.41 638.88 807.89 639.20 L 808.30 639.92 Z" />
<path fill="#050f2a" opacity="1.00" d=" M 523.13 645.75 C 524.11 642.93 526.67 641.39 529.59 641.31 C 527.69 642.60 525.80 643.89 523.94 645.21 L 523.13 645.75 Z" />
<path fill="#050f2a" opacity="1.00" d=" M 416.92 674.99 C 436.36 667.85 454.71 658.02 472.10 646.85 L 472.94 646.34 C 471.26 649.57 467.80 651.01 464.86 652.81 C 451.50 660.93 437.53 668.05 423.06 673.97 C 401.49 682.58 378.29 687.54 355.01 687.06 C 341.05 687.32 327.21 684.41 314.03 679.96 C 311.75 679.22 309.47 678.16 307.96 676.24 L 308.98 676.65 C 325.73 683.52 343.97 686.63 362.05 685.95 C 380.75 685.07 399.35 681.46 416.92 674.99 Z" />
<path fill="#050f2a" opacity="1.00" d=" M 817.30 663.77 C 815.26 658.11 812.26 652.74 811.49 646.70 C 816.51 657.31 820.50 668.39 823.66 679.70 C 823.74 680.05 823.90 680.74 823.98 681.09 C 816.86 683.65 809.54 685.74 802.51 688.59 C 802.68 688.33 803.04 687.80 803.22 687.54 C 809.11 684.16 815.84 682.69 822.24 680.57 C 821.15 674.82 819.36 669.23 817.30 663.77 Z" />
<path fill="#050f2a" opacity="1.00" d=" M 514.12 652.24 C 511.52 651.41 515.79 648.28 515.94 650.96 C 515.48 651.28 514.58 651.92 514.12 652.24 Z" />
<path fill="#050f2a" opacity="1.00" d=" M 280.25 658.12 L 280.98 658.75 C 282.30 659.91 283.62 661.08 284.97 662.22 L 285.68 662.84 C 282.97 662.51 280.92 660.77 280.25 658.12 Z" />
<path fill="#050f2a" opacity="1.00" d=" M 491.21 667.61 C 493.91 663.32 498.67 660.41 503.59 659.40 C 499.46 662.13 495.36 664.90 491.21 667.61 Z" />
<path fill="#050f2a" opacity="1.00" d=" M 289.20 665.28 C 288.36 667.28 284.83 664.71 286.94 663.64 C 287.71 664.14 288.47 664.69 289.20 665.28 Z" />
<path fill="#050f2a" opacity="1.00" d=" M 780.18 668.35 C 784.02 666.54 788.01 665.08 792.04 663.77 L 793.08 663.41 C 789.43 666.84 784.22 668.22 779.35 668.75 L 780.18 668.35 Z" />
<path fill="#050f2a" opacity="1.00" d=" M 480.72 672.81 C 483.13 671.23 485.65 669.69 488.57 669.32 C 483.17 672.84 477.70 676.24 472.19 679.57 C 474.18 676.38 477.69 674.80 480.72 672.81 Z" />
<path fill="#050f2a" opacity="1.00" d=" M 295.03 669.33 L 295.91 669.82 C 299.17 671.79 302.55 673.56 305.95 675.27 L 306.80 675.71 C 302.28 675.30 297.56 673.24 295.03 669.33 Z" />
<path fill="#050f2a" opacity="1.00" d=" M 770.09 673.32 C 772.36 672.03 774.70 670.88 777.08 669.80 L 778.06 669.38 C 776.05 672.24 772.68 673.55 769.29 673.78 L 770.09 673.32 Z" />
<path fill="#050f2a" opacity="1.00" d=" M 754.44 682.76 C 758.80 679.81 763.26 677.01 767.89 674.52 C 764.47 678.57 759.56 681.44 754.44 682.76 Z" />
<path fill="#050f2a" opacity="1.00" d=" M 465.62 683.35 C 464.60 681.33 469.08 678.69 469.93 680.92 C 468.52 681.77 467.09 682.59 465.62 683.35 Z" />
<path fill="#050f2a" opacity="1.00" d=" M 451.41 689.45 C 455.34 687.69 458.93 684.78 463.32 684.37 L 463.13 684.68 C 442.71 695.75 420.87 704.65 397.96 708.92 C 377.59 712.60 356.35 712.87 336.16 707.90 C 325.03 705.17 314.52 700.53 304.15 695.75 L 303.22 695.29 C 306.95 695.21 310.25 697.09 313.55 698.58 C 325.80 704.25 338.94 708.01 352.37 709.57 C 371.05 711.25 390.05 710.08 408.24 705.37 C 423.16 701.69 437.56 696.07 451.41 689.45 Z" />
<path fill="#050f2a" opacity="1.00" d=" M 734.52 697.82 C 740.05 693.07 745.86 688.64 751.87 684.51 C 750.24 687.60 747.16 689.39 744.47 691.42 C 741.27 693.73 738.39 696.66 734.52 697.82 Z" />
<path fill="#050f2a" opacity="1.00" d=" M 791.33 693.50 C 793.72 690.94 796.95 689.46 800.46 689.33 C 797.52 690.93 794.45 692.28 791.33 693.50 Z" />
<path fill="#050f2a" opacity="1.00" d=" M 782.16 698.00 C 782.64 695.72 785.04 695.17 787.05 695.36 C 786.15 696.78 783.83 698.45 782.16 698.00 Z" />
<path fill="#050f2a" opacity="1.00" d=" M 302.33 697.22 L 302.89 698.02 C 304.44 700.28 305.99 702.54 307.56 704.80 C 304.50 703.46 302.55 700.53 302.33 697.22 Z" />
<path fill="#050f2a" opacity="1.00" d=" M 727.58 703.77 C 729.40 702.11 731.24 700.48 733.17 698.95 L 733.90 698.38 C 732.82 701.16 730.56 703.25 727.58 703.77 Z" />
<path fill="#050f2a" opacity="1.00" d=" M 772.26 704.39 C 774.23 701.69 777.06 699.73 780.44 699.35 C 777.81 701.18 775.07 702.86 772.26 704.39 Z" />
<path fill="#050f2a" opacity="1.00" d=" M 263.66 703.52 C 267.51 706.12 270.11 710.05 271.74 714.35 C 268.83 710.91 266.12 707.30 263.66 703.52 Z" />
<path fill="#050f2a" opacity="1.00" d=" M 717.49 712.82 C 720.50 709.99 723.53 707.18 726.71 704.54 C 724.83 708.33 721.61 711.57 717.49 712.82 Z" />
<path fill="#050f2a" opacity="1.00" d=" M 758.40 714.43 C 760.67 710.22 764.98 707.76 769.40 706.35 C 765.77 709.09 762.12 711.81 758.40 714.43 Z" />
<path fill="#050f2a" opacity="1.00" d=" M 314.02 714.40 C 312.23 715.64 309.82 711.59 312.00 711.01 C 312.72 711.97 313.44 712.94 314.14 713.93 L 314.02 714.40 Z" />
<path fill="#050f2a" opacity="1.00" d=" M 272.64 715.78 C 274.24 714.35 276.04 716.92 274.63 718.25 C 273.84 717.51 273.18 716.69 272.64 715.78 Z" />
<path fill="#050f2a" opacity="1.00" d=" M 752.30 719.41 C 753.21 717.20 755.15 715.87 757.37 715.17 C 755.83 716.76 754.11 718.14 752.30 719.41 Z" />
<path fill="#050f2a" opacity="1.00" d=" M 710.35 719.33 C 710.80 718.97 711.70 718.24 712.15 717.88 L 712.89 717.30 C 711.16 720.92 707.96 723.44 705.18 726.22 C 701.46 729.81 697.84 733.52 694.13 737.13 C 692.81 738.51 691.06 739.32 689.25 739.86 L 689.96 739.17 C 696.86 732.66 703.45 725.83 710.35 719.33 Z" />
<path fill="#050f2a" opacity="1.00" d=" M 276.55 720.42 C 278.60 721.42 279.83 723.31 280.75 725.33 C 279.30 723.74 277.90 722.10 276.55 720.42 Z" />
<path fill="#050f2a" opacity="1.00" d=" M 744.28 726.46 C 745.80 723.57 748.18 721.22 751.33 720.17 C 749.17 722.47 746.83 724.60 744.28 726.46 Z" />
<path fill="#050f2a" opacity="1.00" d=" M 322.31 724.45 C 323.58 726.02 324.92 727.55 326.22 729.12 L 326.83 729.87 C 324.22 729.15 322.49 727.16 322.31 724.45 Z" />
<path fill="#050f2a" opacity="1.00" d=" M 281.69 726.44 C 284.15 727.75 285.81 729.97 286.88 732.52 C 285.06 730.56 283.32 728.54 281.69 726.44 Z" />
<path fill="#050f2a" opacity="1.00" d=" M 726.34 743.47 C 729.48 738.26 734.01 733.96 739.38 731.09 C 735.23 735.41 730.89 739.57 726.34 743.47 Z" />
<path fill="#050f2a" opacity="1.00" d=" M 329.18 732.47 C 331.18 734.66 333.19 736.85 335.21 739.04 L 335.86 739.77 C 332.49 738.69 329.96 735.91 329.18 732.47 Z" />
<path fill="#050f2a" opacity="1.00" d=" M 289.54 735.47 C 292.85 737.38 295.65 740.01 298.16 742.88 C 302.48 747.87 308.25 751.60 311.52 757.48 C 303.82 750.54 296.42 743.23 289.54 735.47 Z" />
<path fill="#050f2a" opacity="1.00" d=" M 679.97 748.18 C 681.59 746.68 683.25 745.20 684.92 743.74 L 685.66 743.10 C 684.99 746.27 682.34 748.29 679.26 748.84 L 679.97 748.18 Z" />
<path fill="#050f2a" opacity="1.00" d=" M 343.28 747.10 L 343.99 747.75 C 346.49 750.10 348.97 752.48 351.57 754.73 C 347.66 753.86 344.67 750.76 343.28 747.10 Z" />
<path fill="#050f2a" opacity="1.00" d=" M 711.33 757.46 C 713.34 753.72 716.58 750.89 720.40 749.09 C 717.61 752.12 714.58 754.94 711.33 757.46 Z" />
<path fill="#050f2a" opacity="1.00" d=" M 672.01 755.24 C 673.66 753.74 675.34 752.26 677.03 750.81 L 677.78 750.19 C 676.91 753.24 674.38 755.29 671.32 755.89 L 672.01 755.24 Z" />
<path fill="#050f2a" opacity="1.00" d=" M 665.45 760.69 C 666.99 759.41 668.53 758.13 670.10 756.88 L 670.85 756.29 C 670.06 758.81 668.09 760.47 665.45 760.69 Z" />
<path fill="#050f2a" opacity="1.00" d=" M 358.18 760.35 C 356.75 762.12 352.78 758.82 355.10 757.69 C 356.15 758.54 357.16 759.45 358.18 760.35 Z" />
<path fill="#050f2a" opacity="1.00" d=" M 702.31 765.46 C 703.40 762.75 705.87 761.18 708.42 760.02 C 706.60 762.06 704.55 763.89 702.31 765.46 Z" />
<path fill="#050f2a" opacity="1.00" d=" M 315.50 761.08 C 317.59 762.04 319.61 763.29 320.58 765.49 C 318.81 764.09 317.15 762.59 315.50 761.08 Z" />
<path fill="#050f2a" opacity="1.00" d=" M 359.46 761.91 L 359.95 761.75 C 361.06 762.56 362.11 763.46 363.18 764.35 C 361.79 765.73 358.52 763.79 359.46 761.91 Z" />
<path fill="#050f2a" opacity="1.00" d=" M 660.84 764.46 C 661.84 763.53 662.88 762.65 663.99 761.84 L 664.48 761.98 C 665.49 763.82 662.20 765.82 660.84 764.46 Z" />
<path fill="#050f2a" opacity="1.00" d=" M 367.18 767.37 C 366.27 769.29 362.84 766.67 364.91 765.63 C 365.69 766.15 366.45 766.73 367.18 767.37 Z" />
<path fill="#050f2a" opacity="1.00" d=" M 643.42 777.63 C 648.83 773.92 653.95 769.82 659.16 765.84 L 659.92 765.28 C 658.39 768.52 655.26 770.40 652.53 772.50 C 649.72 774.58 647.01 777.09 643.42 777.63 Z" />
<path fill="#050f2a" opacity="1.00" d=" M 695.36 771.44 C 696.41 768.79 698.73 767.12 701.36 766.21 C 699.55 768.16 697.52 769.89 695.36 771.44 Z" />
<path fill="#050f2a" opacity="1.00" d=" M 322.55 767.09 C 324.53 768.21 326.29 769.65 327.77 771.37 C 325.95 770.04 324.22 768.60 322.55 767.09 Z" />
<path fill="#050f2a" opacity="1.00" d=" M 371.21 770.35 C 370.34 772.30 366.85 769.72 368.91 768.65 C 369.70 769.17 370.47 769.73 371.21 770.35 Z" />
<path fill="#050f2a" opacity="1.00" d=" M 328.75 772.17 C 331.96 773.38 334.82 775.36 336.68 778.30 C 333.88 776.45 331.22 774.41 328.75 772.17 Z" />
<path fill="#050f2a" opacity="1.00" d=" M 689.23 776.56 C 690.11 774.26 692.12 772.90 694.40 772.19 C 692.85 773.84 691.08 775.26 689.23 776.56 Z" />
<path fill="#050f2a" opacity="1.00" d=" M 375.10 773.25 L 375.91 773.79 C 377.78 775.09 379.66 776.37 381.59 777.60 C 378.69 777.53 376.05 776.10 375.10 773.25 Z" />
<path fill="#050f2a" opacity="1.00" d=" M 685.71 779.25 C 684.73 777.86 686.46 776.44 687.82 777.05 C 687.83 778.41 687.12 779.14 685.71 779.25 Z" />
<path fill="#050f2a" opacity="1.00" d=" M 337.77 779.44 C 339.06 777.99 341.61 779.75 340.20 781.35 C 339.25 780.88 338.44 780.24 337.77 779.44 Z" />
<path fill="#050f2a" opacity="1.00" d=" M 676.28 786.50 C 677.93 783.85 680.49 782.03 683.44 781.06 C 681.32 783.20 678.81 784.90 676.28 786.50 Z" />
<path fill="#050f2a" opacity="1.00" d=" M 341.69 782.14 C 344.04 782.97 346.44 784.06 347.57 786.45 C 345.57 785.06 343.60 783.63 341.69 782.14 Z" />
<path fill="#050f2a" opacity="1.00" d=" M 550.00 816.05 C 580.13 811.28 609.13 799.84 634.78 783.38 C 632.67 787.17 628.38 788.66 624.88 790.81 C 597.90 806.01 567.91 816.11 537.01 818.97 C 497.03 823.00 456.13 815.91 419.48 799.59 C 418.54 798.90 417.70 798.12 416.95 797.26 L 417.96 797.67 C 459.03 816.13 505.43 823.37 550.00 816.05 Z" />
<path fill="#050f2a" opacity="1.00" d=" M 392.02 784.26 L 392.92 784.76 C 399.62 788.68 406.52 792.27 413.54 795.59 C 408.93 795.58 405.11 792.75 401.16 790.77 C 397.93 788.90 394.09 787.59 392.02 784.26 Z" />
<path fill="#050f2a" opacity="1.00" d=" M 350.58 788.51 C 355.09 789.89 358.94 792.64 362.78 795.28 C 368.74 799.41 375.72 802.13 380.85 807.41 C 370.43 801.66 360.31 795.37 350.58 788.51 Z" />
<path fill="#050f2a" opacity="1.00" d=" M 656.85 798.87 C 662.07 795.76 666.56 791.38 672.40 789.37 C 663.78 796.08 654.52 801.96 645.10 807.46 C 648.45 803.88 652.68 801.37 656.85 798.87 Z" />
<path fill="#050f2a" opacity="1.00" d=" M 382.72 808.45 C 387.43 809.55 391.67 811.91 395.90 814.19 C 427.99 830.25 462.73 840.79 498.15 846.32 C 497.61 846.61 496.53 847.19 495.99 847.47 C 456.53 840.48 417.65 828.37 382.72 808.45 Z" />
<path fill="#050f2a" opacity="1.00" d=" M 624.46 817.58 C 630.86 814.69 636.56 810.26 643.41 808.41 C 606.02 831.37 562.84 844.26 519.17 847.47 C 518.00 847.15 516.84 846.81 515.69 846.48 C 553.37 844.09 590.72 834.68 624.46 817.58 Z" />
<path fill="#050f2a" opacity="1.00" d=" M 498.71 847.86 C 504.25 846.69 509.97 846.67 515.51 847.89 C 509.92 848.05 504.29 848.38 498.71 847.86 Z" />
</g>
</svg>
